<svg width="16" height="16" viewBox="0 0 16 16" fill="none" xmlns="http://www.w3.org/2000/svg">
<g clip-path="url(#clip0_136_135)">
<path fill-rule="evenodd" clip-rule="evenodd" d="M8.29633 0C5.9927 0 4.1008 1.8673 4.07065 4.17073C4.04049 6.47416 5.88351 8.34146 8.18714 8.34146C10.4908 8.34146 12.3827 6.47416 12.4128 4.17073C12.443 1.8673 10.6 0 8.29633 0ZM5.7341 4.17073C5.75223 2.78592 6.88963 1.66331 8.27456 1.66331C9.65948 1.66331 10.7675 2.78592 10.7494 4.17073C10.7312 5.55554 9.59384 6.67814 8.20891 6.67814C6.82398 6.67814 5.71597 5.55554 5.7341 4.17073ZM5.81319 9.62307C3.18429 9.62307 1.02524 11.754 0.990833 14.3827L0.980549 15.1683C0.974537 15.6276 1.34202 15.9999 1.80135 15.9999C2.26067 15.9999 2.6379 15.6276 2.64392 15.1683L2.6542 14.3827C2.67659 12.6726 4.08117 11.2863 5.79142 11.2863H10.5055C12.2157 11.2863 13.584 12.6726 13.5616 14.3827L13.5513 15.1683C13.5453 15.6276 13.9128 15.9999 14.3721 15.9999C14.8315 15.9999 15.2087 15.6276 15.2147 15.1683L15.225 14.3827C15.2594 11.754 13.1561 9.62307 10.5272 9.62307H5.81319Z" fill="#D3E1F5"/>
</g>
<defs>
<clipPath id="clip0_136_135">
<rect width="16" height="16" fill="white"/>
</clipPath>
</defs>
</svg>
