<svg width="12" height="12" viewBox="0 0 12 12" fill="none" xmlns="http://www.w3.org/2000/svg">
<g clip-path="url(#clip0_109_66)">
<path d="M8.32742 7.43764C8.92392 6.62331 9.20189 5.61717 9.10612 4.60973C9.00685 3.56551 8.5135 2.59833 7.72644 1.90495C6.93938 1.21156 5.91773 0.844052 4.86933 0.877186C3.82093 0.910321 2.82452 1.34161 2.08282 2.08331C1.34112 2.82502 0.909829 3.82142 0.876694 4.86982C0.84356 5.91823 1.21107 6.93987 1.90445 7.72693C2.59784 8.51399 3.56502 9.00734 4.60924 9.10661C5.6168 9.2024 6.62306 8.92435 7.43743 8.3277L10.0506 10.9409C10.0506 10.9409 10.0506 10.9409 10.0506 10.9409C10.1686 11.0589 10.3286 11.1253 10.4955 11.1253C10.6624 11.1254 10.8225 11.0591 10.9406 10.9412C11.0587 10.8232 11.125 10.6631 11.1251 10.4962C11.1252 10.3293 11.0589 10.1692 10.9409 10.0511L10.9409 10.0511L8.32742 7.43764ZM7.03294 7.03293C6.49377 7.5721 5.7625 7.875 5 7.875C4.23751 7.875 3.50624 7.5721 2.96707 7.03293C2.42791 6.49376 2.12501 5.7625 2.12501 5C2.12501 4.2375 2.42791 3.50623 2.96707 2.96707C3.50624 2.4279 4.23751 2.125 5 2.125C5.7625 2.125 6.49377 2.4279 7.03294 2.96707C7.5721 3.50623 7.875 4.2375 7.875 5C7.875 5.7625 7.5721 6.49376 7.03294 7.03293Z" fill="#D3E1F5" stroke="#D3E1F5" stroke-width="0.25"/>
</g>
<defs>
<clipPath id="clip0_109_66">
<rect width="12" height="12" fill="white"/>
</clipPath>
</defs>
</svg>
