<svg width="16" height="16" viewBox="0 0 16 16" fill="none" xmlns="http://www.w3.org/2000/svg">
<g clip-path="url(#clip0_109_155)">
<path d="M13.6 8H8V2.4C8 1.92 7.68 1.6 7.2 1.6C3.2 1.6 0 4.8 0 8.8C0 12.8 3.2 16 7.2 16C11.2 16 14.4 12.8 14.4 8.8C14.4 8.32 14.08 8 13.6 8ZM8 14.32C4.96 14.8 2.08 12.64 1.68 9.6C1.2 6.56 3.36 3.68 6.4 3.28V8.8C6.4 9.28 6.72 9.6 7.2 9.6H12.72C12.4 12.08 10.48 14 8 14.32ZM10.4 0C9.92 0 9.6 0.32 9.6 0.8V5.6C9.6 6.08 9.92 6.4 10.4 6.4H15.2C15.68 6.4 16 6.08 16 5.6C16 2.48 13.52 0 10.4 0ZM11.2 4.8V1.68C12.8 2 14 3.2 14.32 4.8H11.2Z" fill="#D3E1F5"/>
</g>
<defs>
<clipPath id="clip0_109_155">
<rect width="16" height="16" fill="white"/>
</clipPath>
</defs>
</svg>
