<svg width="26" height="26" viewBox="0 0 26 26" fill="none" xmlns="http://www.w3.org/2000/svg">
<rect width="26" height="26" rx="8" fill="url(#paint0_linear_1_427)"/>
<path fill-rule="evenodd" clip-rule="evenodd" d="M7.36778 7.30932C7.54602 7.15473 7.79983 7.12273 8.01086 7.22825L18.5109 12.4782C18.7085 12.5771 18.8333 12.779 18.8333 13C18.8333 13.2209 18.7085 13.4229 18.5109 13.5217L8.01086 18.7717C7.79983 18.8773 7.54602 18.8453 7.36778 18.6907C7.18954 18.5361 7.12198 18.2894 7.19659 18.0655L8.8851 13L7.19659 7.93446C7.12198 7.71064 7.18954 7.4639 7.36778 7.30932ZM9.92043 13.5833L8.74872 17.0984L16.9456 13L8.74872 8.90155L9.92043 12.4167H13C13.3222 12.4167 13.5833 12.6778 13.5833 13C13.5833 13.3222 13.3222 13.5833 13 13.5833H9.92043Z" fill="url(#paint1_linear_1_427)" fill-opacity="0.2"/>
<path fill-rule="evenodd" clip-rule="evenodd" d="M7.36778 7.30932C7.54602 7.15473 7.79983 7.12273 8.01086 7.22825L18.5109 12.4782C18.7085 12.5771 18.8333 12.779 18.8333 13C18.8333 13.2209 18.7085 13.4229 18.5109 13.5217L8.01086 18.7717C7.79983 18.8773 7.54602 18.8453 7.36778 18.6907C7.18954 18.5361 7.12198 18.2894 7.19659 18.0655L8.8851 13L7.19659 7.93446C7.12198 7.71064 7.18954 7.4639 7.36778 7.30932ZM9.92043 13.5833L8.74872 17.0984L16.9456 13L8.74872 8.90155L9.92043 12.4167H13C13.3222 12.4167 13.5833 12.6778 13.5833 13C13.5833 13.3222 13.3222 13.5833 13 13.5833H9.92043Z" fill="#FAFBFC"/>
<defs>
<linearGradient id="paint0_linear_1_427" x1="1.9158e-07" y1="13.3714" x2="26" y2="13.3714" gradientUnits="userSpaceOnUse">
<stop stop-color="#3E79E5"/>
<stop offset="1" stop-color="#01B8E3"/>
</linearGradient>
<linearGradient id="paint1_linear_1_427" x1="7.16663" y1="13" x2="18.8333" y2="13" gradientUnits="userSpaceOnUse">
<stop stop-color="#F0F0F0"/>
<stop offset="1" stop-color="#F0F0F0" stop-opacity="0"/>
</linearGradient>
</defs>
</svg>
