<svg width="12" height="12" viewBox="0 0 12 12" fill="none" xmlns="http://www.w3.org/2000/svg">
<path d="M9 1.5C9.12247 1.50002 9.24067 1.54498 9.33219 1.62636C9.4237 1.70774 9.48217 1.81987 9.4965 1.9415L9.5 2V10C9.49986 10.1274 9.45106 10.25 9.36358 10.3427C9.27609 10.4354 9.15652 10.4911 9.0293 10.4986C8.90208 10.5061 8.77681 10.4647 8.67908 10.3829C8.58136 10.3011 8.51855 10.185 8.5035 10.0585L8.5 10V7.5H8C7.87753 7.49998 7.75933 7.45502 7.66781 7.37364C7.5763 7.29226 7.51783 7.18013 7.5035 7.0585L7.5 7V4C7.5 2.895 8.25 1.5 9 1.5ZM6 1.5C6.12247 1.50002 6.24067 1.54498 6.33219 1.62636C6.4237 1.70774 6.48217 1.81987 6.4965 1.9415L6.5 2V4.5C6.49994 4.94343 6.35259 5.37429 6.08109 5.72489C5.80958 6.07549 5.42931 6.32597 5 6.437V10C4.99986 10.1274 4.95106 10.25 4.86358 10.3427C4.77609 10.4354 4.65652 10.4911 4.5293 10.4986C4.40208 10.5061 4.27681 10.4647 4.17908 10.3829C4.08136 10.3011 4.01855 10.185 4.0035 10.0585L4 10V6.437C3.58773 6.33042 3.2202 6.0951 2.95088 5.76526C2.68156 5.43542 2.52449 5.02826 2.5025 4.603L2.5 4.5V2C2.50014 1.87256 2.54894 1.74998 2.63642 1.65732C2.72391 1.56465 2.84348 1.50888 2.9707 1.50141C3.09792 1.49395 3.22319 1.53534 3.32092 1.61713C3.41864 1.69893 3.48145 1.81495 3.4965 1.9415L3.5 2V4.5C3.5 4.67553 3.54621 4.84797 3.63398 4.99999C3.72175 5.152 3.84798 5.27823 4 5.366V2C4.00014 1.87256 4.04894 1.74998 4.13642 1.65732C4.22391 1.56465 4.34348 1.50888 4.4707 1.50141C4.59792 1.49395 4.72319 1.53534 4.82092 1.61713C4.91864 1.69893 4.98145 1.81495 4.9965 1.9415L5 2L5.0005 5.366C5.14003 5.28535 5.258 5.17216 5.34436 5.03609C5.43072 4.90002 5.48292 4.74509 5.4965 4.5845L5.5 4.5V2C5.5 1.86739 5.55268 1.74021 5.64645 1.64645C5.74021 1.55268 5.86739 1.5 6 1.5Z" fill="url(#paint0_linear_1_660)"/>
<defs>
<linearGradient id="paint0_linear_1_660" x1="2.5" y1="6.12828" x2="9.5" y2="6.12828" gradientUnits="userSpaceOnUse">
<stop stop-color="#3E79E5"/>
<stop offset="1" stop-color="#01B8E3"/>
</linearGradient>
</defs>
</svg>
