<svg width="535" height="277" viewBox="0 0 535 277" fill="none" xmlns="http://www.w3.org/2000/svg">
<path d="M0.5 10C0.5 4.7533 4.75329 0.5 10 0.5H525C530.247 0.5 534.5 4.7533 534.5 10V267C534.5 272.247 530.247 276.5 525 276.5H10C4.7533 276.5 0.5 272.247 0.5 267V10Z" fill="url(#paint0_linear_1_670)" fill-opacity="0.2"/>
<path d="M0.5 10C0.5 4.7533 4.75329 0.5 10 0.5H525C530.247 0.5 534.5 4.7533 534.5 10V267C534.5 272.247 530.247 276.5 525 276.5H10C4.7533 276.5 0.5 272.247 0.5 267V10Z" fill="#FAFBFC" fill-opacity="0.1"/>
<path d="M0.5 10C0.5 4.7533 4.75329 0.5 10 0.5H525C530.247 0.5 534.5 4.7533 534.5 10V267C534.5 272.247 530.247 276.5 525 276.5H10C4.7533 276.5 0.5 272.247 0.5 267V10Z" stroke="#4B6EAC"/>
<path d="M47.7872 84.3029H518.882" stroke="#D3E1F5" stroke-width="0.73125" stroke-dasharray="5.12 5.12"/>
<path d="M47.7872 121.977H518.882" stroke="#D3E1F5" stroke-width="0.73125" stroke-dasharray="5.12 5.12"/>
<path d="M47.7872 159.752H518.882" stroke="#D3E1F5" stroke-width="0.73125" stroke-dasharray="5.12 5.12"/>
<path d="M46.4073 197.427H517.502" stroke="#D3E1F5" stroke-width="0.73125" stroke-dasharray="5.12 5.12"/>
<path d="M47.45 261V255.735H49.1282C49.1721 255.735 49.2586 255.736 49.3878 255.739C49.5194 255.741 49.6462 255.75 49.768 255.764C50.1849 255.818 50.5371 255.967 50.8247 256.21C51.1148 256.452 51.3341 256.76 51.4828 257.135C51.6315 257.511 51.7059 257.921 51.7059 258.367C51.7059 258.814 51.6315 259.224 51.4828 259.6C51.3341 259.975 51.1148 260.285 50.8247 260.528C50.5371 260.77 50.1849 260.917 49.768 260.971C49.6486 260.985 49.5231 260.994 49.3915 260.996C49.2598 260.999 49.1721 261 49.1282 261H47.45ZM48.3458 260.17H49.1282C49.2013 260.17 49.294 260.168 49.4061 260.163C49.5206 260.158 49.6218 260.147 49.7095 260.13C49.9582 260.083 50.1605 259.973 50.3165 259.797C50.4725 259.622 50.587 259.408 50.6602 259.157C50.7357 258.906 50.7735 258.643 50.7735 258.367C50.7735 258.082 50.7357 257.814 50.6602 257.563C50.5846 257.312 50.4676 257.101 50.3092 256.931C50.1532 256.76 49.9533 256.651 49.7095 256.605C49.6218 256.586 49.5206 256.575 49.4061 256.572C49.294 256.567 49.2013 256.565 49.1282 256.565H48.3458V260.17ZM52.5702 261V255.735H55.9705V256.561H53.4513V257.859H55.5317V258.686H53.4513V260.174H55.9705V261H52.5702ZM58.8887 261.11C58.3622 261.11 57.9112 260.995 57.5359 260.766C57.1605 260.534 56.8716 260.213 56.6693 259.801C56.4695 259.389 56.3695 258.911 56.3695 258.367C56.3695 257.824 56.4695 257.346 56.6693 256.934C56.8716 256.522 57.1605 256.202 57.5359 255.973C57.9112 255.741 58.3622 255.625 58.8887 255.625C59.4956 255.625 60.0014 255.778 60.406 256.082C60.8106 256.385 61.0946 256.793 61.2579 257.307L60.3695 257.552C60.2671 257.208 60.0928 256.94 59.8466 256.748C59.6004 256.553 59.2811 256.455 58.8887 256.455C58.5352 256.455 58.2403 256.534 58.0039 256.693C57.7699 256.851 57.5931 257.074 57.4737 257.362C57.3567 257.647 57.297 257.982 57.2946 258.367C57.2946 258.753 57.3531 259.089 57.4701 259.377C57.5895 259.662 57.7674 259.884 58.0039 260.042C58.2403 260.2 58.5352 260.28 58.8887 260.28C59.2811 260.28 59.6004 260.182 59.8466 259.987C60.0928 259.792 60.2671 259.524 60.3695 259.183L61.2579 259.428C61.0946 259.942 60.8106 260.352 60.406 260.656C60.0014 260.959 59.4956 261.11 58.8887 261.11ZM63.3784 260.993V260.225L65.6306 258.218C65.8061 258.062 65.928 257.914 65.9963 257.775C66.0645 257.636 66.0986 257.502 66.0986 257.373C66.0986 257.197 66.0609 257.041 65.9853 256.905C65.9097 256.766 65.8049 256.656 65.6709 256.576C65.5392 256.495 65.3869 256.455 65.2138 256.455C65.031 256.455 64.8689 256.498 64.7275 256.583C64.5886 256.666 64.4801 256.777 64.4021 256.916C64.3241 257.055 64.2876 257.205 64.2924 257.366H63.3857C63.3857 257.015 63.4637 256.709 63.6197 256.448C63.7781 256.187 63.9951 255.985 64.2705 255.841C64.5484 255.697 64.8689 255.625 65.2321 255.625C65.5685 255.625 65.8707 255.701 66.1389 255.852C66.407 256.001 66.6178 256.208 66.7714 256.474C66.9249 256.737 67.0017 257.04 67.0017 257.384C67.0017 257.635 66.9676 257.846 66.8994 258.016C66.8311 258.187 66.7287 258.344 66.5922 258.488C66.4582 258.632 66.2912 258.792 66.0913 258.967L64.4935 260.382L64.4131 260.163H67.0017V260.993H63.3784Z" fill="#D3E1F5"/>
<path d="M90.4875 261V255.735H92.1657C92.2096 255.735 92.2961 255.736 92.4253 255.739C92.5569 255.741 92.6836 255.75 92.8055 255.764C93.2223 255.818 93.5746 255.967 93.8622 256.21C94.1522 256.452 94.3716 256.76 94.5203 257.135C94.669 257.511 94.7433 257.921 94.7433 258.367C94.7433 258.814 94.669 259.224 94.5203 259.6C94.3716 259.975 94.1522 260.285 93.8622 260.528C93.5746 260.77 93.2223 260.917 92.8055 260.971C92.6861 260.985 92.5606 260.994 92.4289 260.996C92.2973 260.999 92.2096 261 92.1657 261H90.4875ZM91.3832 260.17H92.1657C92.2388 260.17 92.3314 260.168 92.4436 260.163C92.5581 260.158 92.6593 260.147 92.747 260.13C92.9956 260.083 93.198 259.973 93.354 259.797C93.51 259.622 93.6245 259.408 93.6976 259.157C93.7732 258.906 93.811 258.643 93.811 258.367C93.811 258.082 93.7732 257.814 93.6976 257.563C93.6221 257.312 93.5051 257.101 93.3466 256.931C93.1906 256.76 92.9908 256.651 92.747 256.605C92.6593 256.586 92.5581 256.575 92.4436 256.572C92.3314 256.567 92.2388 256.565 92.1657 256.565H91.3832V260.17ZM95.6076 261V255.735H99.008V256.561H96.4888V257.859H98.5692V258.686H96.4888V260.174H99.008V261H95.6076ZM101.926 261.11C101.4 261.11 100.949 260.995 100.573 260.766C100.198 260.534 99.9091 260.213 99.7068 259.801C99.5069 259.389 99.407 258.911 99.407 258.367C99.407 257.824 99.5069 257.346 99.7068 256.934C99.9091 256.522 100.198 256.202 100.573 255.973C100.949 255.741 101.4 255.625 101.926 255.625C102.533 255.625 103.039 255.778 103.443 256.082C103.848 256.385 104.132 256.793 104.295 257.307L103.407 257.552C103.305 257.208 103.13 256.94 102.884 256.748C102.638 256.553 102.319 256.455 101.926 256.455C101.573 256.455 101.278 256.534 101.041 256.693C100.807 256.851 100.631 257.074 100.511 257.362C100.394 257.647 100.334 257.982 100.332 258.367C100.332 258.753 100.391 259.089 100.508 259.377C100.627 259.662 100.805 259.884 101.041 260.042C101.278 260.2 101.573 260.28 101.926 260.28C102.319 260.28 102.638 260.182 102.884 259.987C103.13 259.792 103.305 259.524 103.407 259.183L104.295 259.428C104.132 259.942 103.848 260.352 103.443 260.656C103.039 260.959 102.533 261.11 101.926 261.11ZM108.068 261.099C107.805 261.099 107.557 261.048 107.323 260.945C107.089 260.843 106.885 260.698 106.712 260.51C106.541 260.322 106.418 260.101 106.343 259.845L107.195 259.614C107.256 259.824 107.366 259.986 107.527 260.101C107.691 260.213 107.87 260.268 108.065 260.265C108.238 260.265 108.393 260.225 108.529 260.144C108.666 260.064 108.773 259.956 108.851 259.819C108.929 259.68 108.968 259.525 108.968 259.355C108.968 259.094 108.884 258.876 108.716 258.7C108.547 258.525 108.331 258.437 108.065 258.437C107.984 258.437 107.905 258.448 107.827 258.47C107.752 258.492 107.678 258.522 107.608 258.561L107.206 257.867L108.975 256.353L109.052 256.565H106.547V255.735H109.776V256.569L108.354 257.936L108.346 257.676C108.666 257.698 108.937 257.787 109.162 257.943C109.388 258.099 109.561 258.3 109.681 258.547C109.803 258.793 109.864 259.062 109.864 259.355C109.864 259.686 109.782 259.984 109.619 260.247C109.458 260.51 109.241 260.718 108.968 260.872C108.697 261.023 108.398 261.099 108.068 261.099Z" fill="#D3E1F5"/>
<path d="M133.525 261V255.735H135.203C135.247 255.735 135.334 255.736 135.463 255.739C135.594 255.741 135.721 255.75 135.843 255.764C136.26 255.818 136.612 255.967 136.9 256.21C137.19 256.452 137.409 256.76 137.558 257.135C137.706 257.511 137.781 257.921 137.781 258.367C137.781 258.814 137.706 259.224 137.558 259.6C137.409 259.975 137.19 260.285 136.9 260.528C136.612 260.77 136.26 260.917 135.843 260.971C135.724 260.985 135.598 260.994 135.466 260.996C135.335 260.999 135.247 261 135.203 261H133.525ZM134.421 260.17H135.203C135.276 260.17 135.369 260.168 135.481 260.163C135.596 260.158 135.697 260.147 135.784 260.13C136.033 260.083 136.235 259.973 136.391 259.797C136.547 259.622 136.662 259.408 136.735 259.157C136.811 258.906 136.848 258.643 136.848 258.367C136.848 258.082 136.811 257.814 136.735 257.563C136.66 257.312 136.543 257.101 136.384 256.931C136.228 256.76 136.028 256.651 135.784 256.605C135.697 256.586 135.596 256.575 135.481 256.572C135.369 256.567 135.276 256.565 135.203 256.565H134.421V260.17ZM138.645 261V255.735H142.045V256.561H139.526V257.859H141.607V258.686H139.526V260.174H142.045V261H138.645ZM144.964 261.11C144.437 261.11 143.986 260.995 143.611 260.766C143.235 260.534 142.947 260.213 142.744 259.801C142.544 259.389 142.444 258.911 142.444 258.367C142.444 257.824 142.544 257.346 142.744 256.934C142.947 256.522 143.235 256.202 143.611 255.973C143.986 255.741 144.437 255.625 144.964 255.625C145.571 255.625 146.076 255.778 146.481 256.082C146.886 256.385 147.17 256.793 147.333 257.307L146.444 257.552C146.342 257.208 146.168 256.94 145.922 256.748C145.675 256.553 145.356 256.455 144.964 256.455C144.61 256.455 144.315 256.534 144.079 256.693C143.845 256.851 143.668 257.074 143.549 257.362C143.432 257.647 143.372 257.982 143.37 258.367C143.37 258.753 143.428 259.089 143.545 259.377C143.664 259.662 143.842 259.884 144.079 260.042C144.315 260.2 144.61 260.28 144.964 260.28C145.356 260.28 145.675 260.182 145.922 259.987C146.168 259.792 146.342 259.524 146.444 259.183L147.333 259.428C147.17 259.942 146.886 260.352 146.481 260.656C146.076 260.959 145.571 261.11 144.964 261.11ZM151.786 261V260.13H149.453V259.307L151.139 255.735H152.144L150.459 259.307H151.786V257.936H152.678V259.307H153.172V260.13H152.678V261H151.786Z" fill="#D3E1F5"/>
<path d="M176.562 261V255.735H178.241C178.285 255.735 178.371 255.736 178.5 255.739C178.632 255.741 178.759 255.75 178.88 255.764C179.297 255.818 179.65 255.967 179.937 256.21C180.227 256.452 180.447 256.76 180.595 257.135C180.744 257.511 180.818 257.921 180.818 258.367C180.818 258.814 180.744 259.224 180.595 259.6C180.447 259.975 180.227 260.285 179.937 260.528C179.65 260.77 179.297 260.917 178.88 260.971C178.761 260.985 178.636 260.994 178.504 260.996C178.372 260.999 178.285 261 178.241 261H176.562ZM177.458 260.17H178.241C178.314 260.17 178.406 260.168 178.519 260.163C178.633 260.158 178.734 260.147 178.822 260.13C179.071 260.083 179.273 259.973 179.429 259.797C179.585 259.622 179.699 259.408 179.773 259.157C179.848 258.906 179.886 258.643 179.886 258.367C179.886 258.082 179.848 257.814 179.773 257.563C179.697 257.312 179.58 257.101 179.422 256.931C179.266 256.76 179.066 256.651 178.822 256.605C178.734 256.586 178.633 256.575 178.519 256.572C178.406 256.567 178.314 256.565 178.241 256.565H177.458V260.17ZM181.683 261V255.735H185.083V256.561H182.564V257.859H184.644V258.686H182.564V260.174H185.083V261H181.683ZM188.001 261.11C187.475 261.11 187.024 260.995 186.648 260.766C186.273 260.534 185.984 260.213 185.782 259.801C185.582 259.389 185.482 258.911 185.482 258.367C185.482 257.824 185.582 257.346 185.782 256.934C185.984 256.522 186.273 256.202 186.648 255.973C187.024 255.741 187.475 255.625 188.001 255.625C188.608 255.625 189.114 255.778 189.518 256.082C189.923 256.385 190.207 256.793 190.37 257.307L189.482 257.552C189.38 257.208 189.205 256.94 188.959 256.748C188.713 256.553 188.394 256.455 188.001 256.455C187.648 256.455 187.353 256.534 187.116 256.693C186.882 256.851 186.706 257.074 186.586 257.362C186.469 257.647 186.409 257.982 186.407 258.367C186.407 258.753 186.465 259.089 186.582 259.377C186.702 259.662 186.88 259.884 187.116 260.042C187.353 260.2 187.648 260.28 188.001 260.28C188.394 260.28 188.713 260.182 188.959 259.987C189.205 259.792 189.38 259.524 189.482 259.183L190.37 259.428C190.207 259.942 189.923 260.352 189.518 260.656C189.114 260.959 188.608 261.11 188.001 261.11ZM194.198 261.11C193.93 261.11 193.68 261.055 193.449 260.945C193.217 260.833 193.017 260.679 192.849 260.484C192.683 260.289 192.564 260.063 192.491 259.804L193.339 259.578C193.373 259.719 193.435 259.841 193.526 259.943C193.618 260.046 193.725 260.125 193.847 260.181C193.972 260.237 194.1 260.265 194.231 260.265C194.402 260.265 194.558 260.224 194.699 260.141C194.841 260.058 194.953 259.947 195.036 259.808C195.118 259.667 195.16 259.511 195.16 259.34C195.16 259.169 195.117 259.015 195.032 258.876C194.949 258.734 194.837 258.623 194.696 258.543C194.554 258.46 194.399 258.419 194.231 258.419C194.029 258.419 193.861 258.455 193.727 258.528C193.595 258.601 193.494 258.679 193.423 258.762L192.67 258.521L192.831 255.735H195.69V256.561H193.302L193.632 256.251L193.515 258.188L193.354 257.991C193.49 257.867 193.649 257.774 193.829 257.713C194.009 257.652 194.184 257.622 194.352 257.622C194.681 257.622 194.972 257.697 195.226 257.848C195.482 257.997 195.681 258.201 195.825 258.459C195.972 258.717 196.045 259.011 196.045 259.34C196.045 259.669 195.959 259.968 195.789 260.236C195.618 260.502 195.393 260.714 195.112 260.872C194.834 261.03 194.53 261.11 194.198 261.11Z" fill="#3D7AE5"/>
<path d="M219.6 261V255.735H221.278C221.322 255.735 221.409 255.736 221.538 255.739C221.669 255.741 221.796 255.75 221.918 255.764C222.335 255.818 222.687 255.967 222.975 256.21C223.265 256.452 223.484 256.76 223.633 257.135C223.781 257.511 223.856 257.921 223.856 258.367C223.856 258.814 223.781 259.224 223.633 259.6C223.484 259.975 223.265 260.285 222.975 260.528C222.687 260.77 222.335 260.917 221.918 260.971C221.799 260.985 221.673 260.994 221.541 260.996C221.41 260.999 221.322 261 221.278 261H219.6ZM220.496 260.17H221.278C221.351 260.17 221.444 260.168 221.556 260.163C221.671 260.158 221.772 260.147 221.859 260.13C222.108 260.083 222.31 259.973 222.466 259.797C222.622 259.622 222.737 259.408 222.81 259.157C222.886 258.906 222.923 258.643 222.923 258.367C222.923 258.082 222.886 257.814 222.81 257.563C222.735 257.312 222.618 257.101 222.459 256.931C222.303 256.76 222.103 256.651 221.859 256.605C221.772 256.586 221.671 256.575 221.556 256.572C221.444 256.567 221.351 256.565 221.278 256.565H220.496V260.17ZM224.72 261V255.735H228.12V256.561H225.601V257.859H227.682V258.686H225.601V260.174H228.12V261H224.72ZM231.039 261.11C230.512 261.11 230.061 260.995 229.686 260.766C229.31 260.534 229.022 260.213 228.819 259.801C228.619 259.389 228.519 258.911 228.519 258.367C228.519 257.824 228.619 257.346 228.819 256.934C229.022 256.522 229.31 256.202 229.686 255.973C230.061 255.741 230.512 255.625 231.039 255.625C231.646 255.625 232.151 255.778 232.556 256.082C232.961 256.385 233.245 256.793 233.408 257.307L232.519 257.552C232.417 257.208 232.243 256.94 231.997 256.748C231.75 256.553 231.431 256.455 231.039 256.455C230.685 256.455 230.39 256.534 230.154 256.693C229.92 256.851 229.743 257.074 229.624 257.362C229.507 257.647 229.447 257.982 229.444 258.367C229.444 258.753 229.503 259.089 229.62 259.377C229.739 259.662 229.917 259.884 230.154 260.042C230.39 260.2 230.685 260.28 231.039 260.28C231.431 260.28 231.75 260.182 231.997 259.987C232.243 259.792 232.417 259.524 232.519 259.183L233.408 259.428C233.245 259.942 232.961 260.352 232.556 260.656C232.151 260.959 231.646 261.11 231.039 261.11ZM237.495 261.11C237.152 261.11 236.842 261.029 236.567 260.868C236.294 260.705 236.077 260.48 235.916 260.192C235.755 259.904 235.675 259.574 235.675 259.201V257.6C235.675 257.2 235.754 256.853 235.912 256.558C236.073 256.263 236.297 256.035 236.585 255.874C236.875 255.713 237.211 255.633 237.594 255.633C237.86 255.633 238.112 255.678 238.351 255.768C238.59 255.856 238.802 255.997 238.987 256.192L238.351 256.81C238.258 256.7 238.145 256.614 238.011 256.55C237.879 256.487 237.74 256.455 237.594 256.455C237.389 256.455 237.21 256.504 237.057 256.602C236.903 256.697 236.784 256.822 236.698 256.978C236.615 257.134 236.574 257.301 236.574 257.479V258.353L236.413 258.177C236.564 258.002 236.746 257.865 236.958 257.768C237.17 257.668 237.392 257.618 237.623 257.618C237.955 257.618 238.247 257.694 238.501 257.845C238.754 257.993 238.954 258.198 239.1 258.459C239.247 258.717 239.32 259.012 239.32 259.344C239.32 259.673 239.236 259.971 239.068 260.239C238.902 260.505 238.681 260.717 238.406 260.876C238.13 261.032 237.827 261.11 237.495 261.11ZM237.495 260.265C237.666 260.265 237.822 260.225 237.963 260.144C238.105 260.062 238.217 259.951 238.3 259.812C238.385 259.67 238.428 259.514 238.428 259.344C238.428 259.173 238.386 259.017 238.303 258.876C238.221 258.734 238.108 258.622 237.967 258.539C237.828 258.454 237.673 258.411 237.503 258.411C237.332 258.411 237.176 258.454 237.035 258.539C236.893 258.622 236.781 258.734 236.698 258.876C236.615 259.017 236.574 259.173 236.574 259.344C236.574 259.509 236.614 259.663 236.695 259.804C236.778 259.943 236.888 260.055 237.027 260.141C237.169 260.224 237.325 260.265 237.495 260.265Z" fill="#D3E1F5"/>
<path d="M262.637 261V255.735H264.316C264.359 255.735 264.446 255.736 264.575 255.739C264.707 255.741 264.834 255.75 264.955 255.764C265.372 255.818 265.724 255.967 266.012 256.21C266.302 256.452 266.522 256.76 266.67 257.135C266.819 257.511 266.893 257.921 266.893 258.367C266.893 258.814 266.819 259.224 266.67 259.6C266.522 259.975 266.302 260.285 266.012 260.528C265.724 260.77 265.372 260.917 264.955 260.971C264.836 260.985 264.71 260.994 264.579 260.996C264.447 260.999 264.359 261 264.316 261H262.637ZM263.533 260.17H264.316C264.389 260.17 264.481 260.168 264.593 260.163C264.708 260.158 264.809 260.147 264.897 260.13C265.146 260.083 265.348 259.973 265.504 259.797C265.66 259.622 265.774 259.408 265.848 259.157C265.923 258.906 265.961 258.643 265.961 258.367C265.961 258.082 265.923 257.814 265.848 257.563C265.772 257.312 265.655 257.101 265.497 256.931C265.341 256.76 265.141 256.651 264.897 256.605C264.809 256.586 264.708 256.575 264.593 256.572C264.481 256.567 264.389 256.565 264.316 256.565H263.533V260.17ZM267.758 261V255.735H271.158V256.561H268.639V257.859H270.719V258.686H268.639V260.174H271.158V261H267.758ZM274.076 261.11C273.55 261.11 273.099 260.995 272.723 260.766C272.348 260.534 272.059 260.213 271.857 259.801C271.657 259.389 271.557 258.911 271.557 258.367C271.557 257.824 271.657 257.346 271.857 256.934C272.059 256.522 272.348 256.202 272.723 255.973C273.099 255.741 273.55 255.625 274.076 255.625C274.683 255.625 275.189 255.778 275.593 256.082C275.998 256.385 276.282 256.793 276.445 257.307L275.557 257.552C275.454 257.208 275.28 256.94 275.034 256.748C274.788 256.553 274.468 256.455 274.076 256.455C273.723 256.455 273.428 256.534 273.191 256.693C272.957 256.851 272.781 257.074 272.661 257.362C272.544 257.647 272.484 257.982 272.482 258.367C272.482 258.753 272.54 259.089 272.657 259.377C272.777 259.662 272.955 259.884 273.191 260.042C273.428 260.2 273.723 260.28 274.076 260.28C274.468 260.28 274.788 260.182 275.034 259.987C275.28 259.792 275.454 259.524 275.557 259.183L276.445 259.428C276.282 259.942 275.998 260.352 275.593 260.656C275.189 260.959 274.683 261.11 274.076 261.11ZM278.979 261L280.792 256.569H278.493V255.735H281.736V256.569L279.93 261H278.979Z" fill="#D3E1F5"/>
<path d="M304.673 261V255.735H306.351C306.395 255.735 306.482 255.736 306.611 255.739C306.743 255.741 306.869 255.75 306.991 255.764C307.408 255.818 307.76 255.967 308.048 256.21C308.338 256.452 308.557 256.76 308.706 257.135C308.855 257.511 308.929 257.921 308.929 258.367C308.929 258.814 308.855 259.224 308.706 259.6C308.557 259.975 308.338 260.285 308.048 260.528C307.76 260.77 307.408 260.917 306.991 260.971C306.872 260.985 306.746 260.994 306.615 260.996C306.483 260.999 306.395 261 306.351 261H304.673ZM305.569 260.17H306.351C306.424 260.17 306.517 260.168 306.629 260.163C306.744 260.158 306.845 260.147 306.933 260.13C307.181 260.083 307.384 259.973 307.54 259.797C307.696 259.622 307.81 259.408 307.883 259.157C307.959 258.906 307.997 258.643 307.997 258.367C307.997 258.082 307.959 257.814 307.883 257.563C307.808 257.312 307.691 257.101 307.532 256.931C307.376 256.76 307.176 256.651 306.933 256.605C306.845 256.586 306.744 256.575 306.629 256.572C306.517 256.567 306.424 256.565 306.351 256.565H305.569V260.17ZM309.793 261V255.735H313.194V256.561H310.674V257.859H312.755V258.686H310.674V260.174H313.194V261H309.793ZM316.112 261.11C315.585 261.11 315.134 260.995 314.759 260.766C314.384 260.534 314.095 260.213 313.892 259.801C313.693 259.389 313.593 258.911 313.593 258.367C313.593 257.824 313.693 257.346 313.892 256.934C314.095 256.522 314.384 256.202 314.759 255.973C315.134 255.741 315.585 255.625 316.112 255.625C316.719 255.625 317.224 255.778 317.629 256.082C318.034 256.385 318.318 256.793 318.481 257.307L317.593 257.552C317.49 257.208 317.316 256.94 317.07 256.748C316.824 256.553 316.504 256.455 316.112 256.455C315.758 256.455 315.463 256.534 315.227 256.693C314.993 256.851 314.816 257.074 314.697 257.362C314.58 257.647 314.52 257.982 314.518 258.367C314.518 258.753 314.576 259.089 314.693 259.377C314.813 259.662 314.991 259.884 315.227 260.042C315.463 260.2 315.758 260.28 316.112 260.28C316.504 260.28 316.824 260.182 317.07 259.987C317.316 259.792 317.49 259.524 317.593 259.183L318.481 259.428C318.318 259.942 318.034 260.352 317.629 260.656C317.224 260.959 316.719 261.11 316.112 261.11ZM322.47 261.11C322.121 261.11 321.812 261.039 321.541 260.898C321.271 260.756 321.058 260.56 320.905 260.309C320.751 260.058 320.675 259.77 320.675 259.446C320.675 259.156 320.742 258.887 320.876 258.638C321.01 258.389 321.206 258.191 321.464 258.042L321.446 258.324C321.244 258.17 321.087 257.993 320.974 257.793C320.865 257.591 320.81 257.364 320.81 257.113C320.81 256.811 320.881 256.549 321.022 256.327C321.166 256.105 321.362 255.934 321.611 255.812C321.859 255.687 322.146 255.625 322.47 255.625C322.794 255.625 323.08 255.687 323.329 255.812C323.58 255.934 323.776 256.105 323.918 256.327C324.061 256.549 324.133 256.811 324.133 257.113C324.133 257.364 324.08 257.59 323.973 257.79C323.868 257.99 323.708 258.17 323.494 258.331L323.49 258.046C323.743 258.19 323.937 258.387 324.071 258.638C324.208 258.887 324.276 259.156 324.276 259.446C324.276 259.77 324.198 260.058 324.042 260.309C323.888 260.56 323.675 260.756 323.402 260.898C323.132 261.039 322.821 261.11 322.47 261.11ZM322.47 260.28C322.728 260.28 322.938 260.209 323.099 260.068C323.262 259.926 323.344 259.719 323.344 259.446C323.344 259.173 323.263 258.966 323.102 258.825C322.941 258.681 322.731 258.609 322.47 258.609C322.211 258.609 322.003 258.681 321.845 258.825C321.686 258.966 321.607 259.173 321.607 259.446C321.607 259.719 321.686 259.926 321.845 260.068C322.003 260.209 322.211 260.28 322.47 260.28ZM322.47 257.772C322.687 257.772 322.862 257.718 322.996 257.611C323.133 257.501 323.201 257.335 323.201 257.113C323.201 256.892 323.133 256.727 322.996 256.62C322.862 256.51 322.687 256.455 322.47 256.455C322.255 256.455 322.08 256.51 321.943 256.62C321.809 256.727 321.742 256.892 321.742 257.113C321.742 257.335 321.809 257.501 321.943 257.611C322.08 257.718 322.255 257.772 322.47 257.772Z" fill="#D3E1F5"/>
<path d="M347.711 261V255.735H349.389C349.433 255.735 349.519 255.736 349.648 255.739C349.78 255.741 349.907 255.75 350.029 255.764C350.445 255.818 350.798 255.967 351.085 256.21C351.375 256.452 351.595 256.76 351.743 257.135C351.892 257.511 351.966 257.921 351.966 258.367C351.966 258.814 351.892 259.224 351.743 259.6C351.595 259.975 351.375 260.285 351.085 260.528C350.798 260.77 350.445 260.917 350.029 260.971C349.909 260.985 349.784 260.994 349.652 260.996C349.52 260.999 349.433 261 349.389 261H347.711ZM348.606 260.17H349.389C349.462 260.17 349.555 260.168 349.667 260.163C349.781 260.158 349.882 260.147 349.97 260.13C350.219 260.083 350.421 259.973 350.577 259.797C350.733 259.622 350.848 259.408 350.921 259.157C350.996 258.906 351.034 258.643 351.034 258.367C351.034 258.082 350.996 257.814 350.921 257.563C350.845 257.312 350.728 257.101 350.57 256.931C350.414 256.76 350.214 256.651 349.97 256.605C349.882 256.586 349.781 256.575 349.667 256.572C349.555 256.567 349.462 256.565 349.389 256.565H348.606V260.17ZM352.831 261V255.735H356.231V256.561H353.712V257.859H355.792V258.686H353.712V260.174H356.231V261H352.831ZM359.149 261.11C358.623 261.11 358.172 260.995 357.796 260.766C357.421 260.534 357.132 260.213 356.93 259.801C356.73 259.389 356.63 258.911 356.63 258.367C356.63 257.824 356.73 257.346 356.93 256.934C357.132 256.522 357.421 256.202 357.796 255.973C358.172 255.741 358.623 255.625 359.149 255.625C359.756 255.625 360.262 255.778 360.667 256.082C361.071 256.385 361.355 256.793 361.518 257.307L360.63 257.552C360.528 257.208 360.353 256.94 360.107 256.748C359.861 256.553 359.542 256.455 359.149 256.455C358.796 256.455 358.501 256.534 358.264 256.693C358.03 256.851 357.854 257.074 357.734 257.362C357.617 257.647 357.558 257.982 357.555 258.367C357.555 258.753 357.614 259.089 357.731 259.377C357.85 259.662 358.028 259.884 358.264 260.042C358.501 260.2 358.796 260.28 359.149 260.28C359.542 260.28 359.861 260.182 360.107 259.987C360.353 259.792 360.528 259.524 360.63 259.183L361.518 259.428C361.355 259.942 361.071 260.352 360.667 260.656C360.262 260.959 359.756 261.11 359.149 261.11ZM365.346 261.11C365.078 261.11 364.828 261.055 364.597 260.945C364.365 260.833 364.165 260.679 363.997 260.484C363.832 260.289 363.712 260.063 363.639 259.804L364.487 259.578C364.521 259.719 364.583 259.841 364.674 259.943C364.766 260.046 364.874 260.125 364.995 260.181C365.12 260.237 365.248 260.265 365.379 260.265C365.55 260.265 365.706 260.224 365.847 260.141C365.989 260.058 366.101 259.947 366.184 259.808C366.267 259.667 366.308 259.511 366.308 259.34C366.308 259.169 366.265 259.015 366.18 258.876C366.097 258.734 365.985 258.623 365.844 258.543C365.702 258.46 365.548 258.419 365.379 258.419C365.177 258.419 365.009 258.455 364.875 258.528C364.743 258.601 364.642 258.679 364.571 258.762L363.818 258.521L363.979 255.735H366.838V256.561H364.451L364.78 256.251L364.663 258.188L364.502 257.991C364.638 257.867 364.797 257.774 364.977 257.713C365.158 257.652 365.332 257.622 365.5 257.622C365.829 257.622 366.12 257.697 366.374 257.848C366.63 257.997 366.83 258.201 366.973 258.459C367.12 258.717 367.193 259.011 367.193 259.34C367.193 259.669 367.108 259.968 366.937 260.236C366.766 260.502 366.541 260.714 366.26 260.872C365.983 261.03 365.678 261.11 365.346 261.11Z" fill="#D3E1F5"/>
<path d="M390.748 261V255.735H392.426C392.47 255.735 392.557 255.736 392.686 255.739C392.817 255.741 392.944 255.75 393.066 255.764C393.483 255.818 393.835 255.967 394.123 256.21C394.413 256.452 394.632 256.76 394.781 257.135C394.93 257.511 395.004 257.921 395.004 258.367C395.004 258.814 394.93 259.224 394.781 259.6C394.632 259.975 394.413 260.285 394.123 260.528C393.835 260.77 393.483 260.917 393.066 260.971C392.947 260.985 392.821 260.994 392.689 260.996C392.558 260.999 392.47 261 392.426 261H390.748ZM391.644 260.17H392.426C392.499 260.17 392.592 260.168 392.704 260.163C392.819 260.158 392.92 260.147 393.008 260.13C393.256 260.083 393.459 259.973 393.615 259.797C393.771 259.622 393.885 259.408 393.958 259.157C394.034 258.906 394.072 258.643 394.072 258.367C394.072 258.082 394.034 257.814 393.958 257.563C393.883 257.312 393.766 257.101 393.607 256.931C393.451 256.76 393.251 256.651 393.008 256.605C392.92 256.586 392.819 256.575 392.704 256.572C392.592 256.567 392.499 256.565 392.426 256.565H391.644V260.17ZM395.868 261V255.735H399.269V256.561H396.749V257.859H398.83V258.686H396.749V260.174H399.269V261H395.868ZM402.187 261.11C401.66 261.11 401.209 260.995 400.834 260.766C400.459 260.534 400.17 260.213 399.967 259.801C399.767 259.389 399.668 258.911 399.668 258.367C399.668 257.824 399.767 257.346 399.967 256.934C400.17 256.522 400.459 256.202 400.834 255.973C401.209 255.741 401.66 255.625 402.187 255.625C402.794 255.625 403.299 255.778 403.704 256.082C404.109 256.385 404.393 256.793 404.556 257.307L403.667 257.552C403.565 257.208 403.391 256.94 403.145 256.748C402.898 256.553 402.579 256.455 402.187 256.455C401.833 256.455 401.538 256.534 401.302 256.693C401.068 256.851 400.891 257.074 400.772 257.362C400.655 257.647 400.595 257.982 400.593 258.367C400.593 258.753 400.651 259.089 400.768 259.377C400.888 259.662 401.065 259.884 401.302 260.042C401.538 260.2 401.833 260.28 402.187 260.28C402.579 260.28 402.898 260.182 403.145 259.987C403.391 259.792 403.565 259.524 403.667 259.183L404.556 259.428C404.393 259.942 404.109 260.352 403.704 260.656C403.299 260.959 402.794 261.11 402.187 261.11ZM407.737 261V256.697L406.75 257.3V256.327L407.737 255.735H408.636V261H407.737ZM411.923 261.11C411.55 261.11 411.221 261.03 410.936 260.872C410.651 260.711 410.428 260.488 410.267 260.203C410.108 259.918 410.029 259.589 410.029 259.216V257.519C410.029 257.146 410.108 256.817 410.267 256.532C410.428 256.247 410.651 256.025 410.936 255.867C411.221 255.706 411.55 255.625 411.923 255.625C412.296 255.625 412.624 255.706 412.906 255.867C413.192 256.025 413.415 256.247 413.576 256.532C413.736 256.817 413.817 257.146 413.817 257.519V259.216C413.817 259.589 413.736 259.918 413.576 260.203C413.415 260.488 413.192 260.711 412.906 260.872C412.624 261.03 412.296 261.11 411.923 261.11ZM411.923 260.272C412.108 260.272 412.276 260.229 412.428 260.141C412.579 260.051 412.698 259.931 412.786 259.782C412.874 259.631 412.917 259.463 412.917 259.278V257.453C412.917 257.266 412.874 257.098 412.786 256.949C412.698 256.798 412.579 256.678 412.428 256.591C412.276 256.5 412.108 256.455 411.923 256.455C411.738 256.455 411.57 256.5 411.418 256.591C411.267 256.678 411.148 256.798 411.06 256.949C410.972 257.098 410.928 257.266 410.928 257.453V259.278C410.928 259.463 410.972 259.631 411.06 259.782C411.148 259.931 411.267 260.051 411.418 260.141C411.57 260.229 411.738 260.272 411.923 260.272Z" fill="#D3E1F5"/>
<path d="M439.748 261V255.735H441.426C441.47 255.735 441.557 255.736 441.686 255.739C441.817 255.741 441.944 255.75 442.066 255.764C442.483 255.818 442.835 255.967 443.123 256.21C443.413 256.452 443.632 256.76 443.781 257.135C443.93 257.511 444.004 257.921 444.004 258.367C444.004 258.814 443.93 259.224 443.781 259.6C443.632 259.975 443.413 260.285 443.123 260.528C442.835 260.77 442.483 260.917 442.066 260.971C441.947 260.985 441.821 260.994 441.689 260.996C441.558 260.999 441.47 261 441.426 261H439.748ZM440.644 260.17H441.426C441.499 260.17 441.592 260.168 441.704 260.163C441.819 260.158 441.92 260.147 442.008 260.13C442.256 260.083 442.459 259.973 442.615 259.797C442.771 259.622 442.885 259.408 442.958 259.157C443.034 258.906 443.072 258.643 443.072 258.367C443.072 258.082 443.034 257.814 442.958 257.563C442.883 257.312 442.766 257.101 442.607 256.931C442.451 256.76 442.251 256.651 442.008 256.605C441.92 256.586 441.819 256.575 441.704 256.572C441.592 256.567 441.499 256.565 441.426 256.565H440.644V260.17ZM444.868 261V255.735H448.269V256.561H445.749V257.859H447.83V258.686H445.749V260.174H448.269V261H444.868ZM451.187 261.11C450.66 261.11 450.209 260.995 449.834 260.766C449.459 260.534 449.17 260.213 448.967 259.801C448.767 259.389 448.668 258.911 448.668 258.367C448.668 257.824 448.767 257.346 448.967 256.934C449.17 256.522 449.459 256.202 449.834 255.973C450.209 255.741 450.66 255.625 451.187 255.625C451.794 255.625 452.299 255.778 452.704 256.082C453.109 256.385 453.393 256.793 453.556 257.307L452.667 257.552C452.565 257.208 452.391 256.94 452.145 256.748C451.898 256.553 451.579 256.455 451.187 256.455C450.833 256.455 450.538 256.534 450.302 256.693C450.068 256.851 449.891 257.074 449.772 257.362C449.655 257.647 449.595 257.982 449.593 258.367C449.593 258.753 449.651 259.089 449.768 259.377C449.888 259.662 450.065 259.884 450.302 260.042C450.538 260.2 450.833 260.28 451.187 260.28C451.579 260.28 451.898 260.182 452.145 259.987C452.391 259.792 452.565 259.524 452.667 259.183L453.556 259.428C453.393 259.942 453.109 260.352 452.704 260.656C452.299 260.959 451.794 261.11 451.187 261.11ZM456.737 261V256.697L455.75 257.3V256.327L456.737 255.735H457.636V261H456.737ZM459.943 261V256.697L458.956 257.3V256.327L459.943 255.735H460.843V261H459.943Z" fill="#D3E1F5"/>
<path d="M486.748 261V255.735H488.426C488.47 255.735 488.557 255.736 488.686 255.739C488.817 255.741 488.944 255.75 489.066 255.764C489.483 255.818 489.835 255.967 490.123 256.21C490.413 256.452 490.632 256.76 490.781 257.135C490.93 257.511 491.004 257.921 491.004 258.367C491.004 258.814 490.93 259.224 490.781 259.6C490.632 259.975 490.413 260.285 490.123 260.528C489.835 260.77 489.483 260.917 489.066 260.971C488.947 260.985 488.821 260.994 488.689 260.996C488.558 260.999 488.47 261 488.426 261H486.748ZM487.644 260.17H488.426C488.499 260.17 488.592 260.168 488.704 260.163C488.819 260.158 488.92 260.147 489.008 260.13C489.256 260.083 489.459 259.973 489.615 259.797C489.771 259.622 489.885 259.408 489.958 259.157C490.034 258.906 490.072 258.643 490.072 258.367C490.072 258.082 490.034 257.814 489.958 257.563C489.883 257.312 489.766 257.101 489.607 256.931C489.451 256.76 489.251 256.651 489.008 256.605C488.92 256.586 488.819 256.575 488.704 256.572C488.592 256.567 488.499 256.565 488.426 256.565H487.644V260.17ZM491.868 261V255.735H495.269V256.561H492.749V257.859H494.83V258.686H492.749V260.174H495.269V261H491.868ZM498.187 261.11C497.66 261.11 497.209 260.995 496.834 260.766C496.459 260.534 496.17 260.213 495.967 259.801C495.767 259.389 495.668 258.911 495.668 258.367C495.668 257.824 495.767 257.346 495.967 256.934C496.17 256.522 496.459 256.202 496.834 255.973C497.209 255.741 497.66 255.625 498.187 255.625C498.794 255.625 499.299 255.778 499.704 256.082C500.109 256.385 500.393 256.793 500.556 257.307L499.667 257.552C499.565 257.208 499.391 256.94 499.145 256.748C498.898 256.553 498.579 256.455 498.187 256.455C497.833 256.455 497.538 256.534 497.302 256.693C497.068 256.851 496.891 257.074 496.772 257.362C496.655 257.647 496.595 257.982 496.593 258.367C496.593 258.753 496.651 259.089 496.768 259.377C496.888 259.662 497.065 259.884 497.302 260.042C497.538 260.2 497.833 260.28 498.187 260.28C498.579 260.28 498.898 260.182 499.145 259.987C499.391 259.792 499.565 259.524 499.667 259.183L500.556 259.428C500.393 259.942 500.109 260.352 499.704 260.656C499.299 260.959 498.794 261.11 498.187 261.11ZM503.737 261V256.697L502.75 257.3V256.327L503.737 255.735H504.636V261H503.737ZM505.883 260.993V260.225L508.135 258.218C508.311 258.062 508.432 257.914 508.501 257.775C508.569 257.636 508.603 257.502 508.603 257.373C508.603 257.197 508.565 257.041 508.49 256.905C508.414 256.766 508.309 256.656 508.175 256.576C508.044 256.495 507.891 256.455 507.718 256.455C507.535 256.455 507.373 256.498 507.232 256.583C507.093 256.666 506.985 256.777 506.907 256.916C506.829 257.055 506.792 257.205 506.797 257.366H505.89C505.89 257.015 505.968 256.709 506.124 256.448C506.283 256.187 506.499 255.985 506.775 255.841C507.053 255.697 507.373 255.625 507.736 255.625C508.073 255.625 508.375 255.701 508.643 255.852C508.911 256.001 509.122 256.208 509.276 256.474C509.429 256.737 509.506 257.04 509.506 257.384C509.506 257.635 509.472 257.846 509.404 258.016C509.335 258.187 509.233 258.344 509.097 258.488C508.963 258.632 508.796 258.792 508.596 258.967L506.998 260.382L506.917 260.163H509.506V260.993H505.883Z" fill="#D3E1F5"/>
<path d="M18.7408 84V83.0823H16.3643V82.3583L18.0754 78.735H18.9493L17.2381 82.3583H18.7408V80.9324H19.516V82.3583H20.0388V83.0823H19.516V84H18.7408ZM20.9129 84L20.9166 78.735H21.6917V81.9525L23.242 80.0512H24.2145L22.5765 82.0256L24.3827 84H23.3443L21.6917 82.0987V84H20.9129Z" fill="#D3E1F5"/>
<path d="M17.984 121.949C17.7232 121.949 17.4782 121.9 17.2491 121.803C17.02 121.703 16.8213 121.562 16.6531 121.379C16.4874 121.196 16.3667 120.98 16.2912 120.732L17.0297 120.527C17.1004 120.754 17.2235 120.928 17.399 121.05C17.5745 121.169 17.7695 121.228 17.984 121.225C18.1766 121.223 18.346 121.178 18.4922 121.09C18.6385 121.002 18.753 120.884 18.8359 120.735C18.9188 120.584 18.9602 120.411 18.9602 120.216C18.9602 119.924 18.8688 119.682 18.686 119.492C18.5056 119.302 18.2692 119.207 17.9767 119.207C17.8938 119.207 17.8085 119.219 17.7208 119.244C17.6354 119.268 17.555 119.3 17.4794 119.339L17.1211 118.735L18.9785 117.094L19.0589 117.313H16.4996V116.585H19.6659V117.313L18.1229 118.798L18.1156 118.549C18.4471 118.549 18.7348 118.623 18.9785 118.772C19.2223 118.918 19.4099 119.118 19.5416 119.372C19.6756 119.623 19.7427 119.904 19.7427 120.216C19.7427 120.553 19.6634 120.851 19.505 121.112C19.349 121.373 19.1382 121.577 18.8725 121.726C18.6092 121.875 18.3131 121.949 17.984 121.949ZM20.6916 121.85L20.6952 116.585H21.4703V119.803L23.0206 117.902H23.9932L22.3552 119.876L24.1613 121.85H23.123L21.4703 119.949V121.85H20.6916Z" fill="#D3E1F5"/>
<path d="M16.3643 159.697L16.3679 159.017L18.6604 156.962C18.8457 156.799 18.9712 156.643 19.037 156.494C19.1053 156.346 19.1394 156.197 19.1394 156.048C19.1394 155.861 19.0979 155.693 19.0151 155.544C18.9322 155.393 18.8176 155.273 18.6714 155.186C18.5251 155.098 18.3569 155.054 18.1668 155.054C17.9718 155.054 17.7975 155.1 17.644 155.193C17.4928 155.283 17.3746 155.404 17.2893 155.555C17.204 155.706 17.1626 155.869 17.165 156.045H16.3826C16.3826 155.703 16.4593 155.405 16.6129 155.149C16.7689 154.891 16.9822 154.689 17.2528 154.546C17.5233 154.399 17.8329 154.326 18.1814 154.326C18.5129 154.326 18.8103 154.402 19.0736 154.553C19.3368 154.702 19.544 154.906 19.6951 155.167C19.8487 155.428 19.9255 155.725 19.9255 156.059C19.9255 156.301 19.8938 156.505 19.8304 156.674C19.767 156.842 19.672 156.998 19.5452 157.142C19.4185 157.285 19.26 157.441 19.0699 157.61L17.3003 159.189L17.2162 158.97H19.9255V159.697H16.3643ZM20.7987 159.701L20.8023 154.436H21.5775V157.653L23.1277 155.752H24.1003L22.4623 157.727L24.2685 159.701H23.2301L21.5775 157.8V159.701H20.7987Z" fill="#D3E1F5"/>
<path d="M17.4283 197.552V193.127L16.4374 193.731V192.879L17.4283 192.287H18.207V197.552H17.4283ZM19.5918 197.552L19.5955 192.287H20.3706V195.504L21.9209 193.603H22.8934L21.2554 195.577L23.0616 197.552H22.0232L20.3706 195.65V197.552H19.5918Z" fill="#D3E1F5"/>
<path d="M18.346 235.512C17.9877 235.512 17.6708 235.434 17.3953 235.278C17.1199 235.119 16.903 234.902 16.7445 234.627C16.5885 234.351 16.5105 234.035 16.5105 233.676V231.863C16.5105 231.504 16.5885 231.188 16.7445 230.912C16.903 230.637 17.1199 230.421 17.3953 230.265C17.6708 230.107 17.9877 230.027 18.346 230.027C18.7043 230.027 19.0212 230.107 19.2966 230.265C19.572 230.421 19.7878 230.637 19.9438 230.912C20.1022 231.188 20.1814 231.504 20.1814 231.863V233.676C20.1814 234.035 20.1022 234.351 19.9438 234.627C19.7878 234.902 19.572 235.119 19.2966 235.278C19.0212 235.434 18.7043 235.512 18.346 235.512ZM18.346 234.78C18.541 234.78 18.7177 234.734 18.8761 234.642C19.037 234.546 19.165 234.42 19.26 234.261C19.3551 234.1 19.4026 233.921 19.4026 233.724V231.808C19.4026 231.613 19.3551 231.436 19.26 231.278C19.165 231.117 19.037 230.99 18.8761 230.898C18.7177 230.802 18.541 230.755 18.346 230.755C18.151 230.755 17.973 230.802 17.8122 230.898C17.6537 230.99 17.527 231.117 17.4319 231.278C17.3368 231.436 17.2893 231.613 17.2893 231.808V233.724C17.2893 233.921 17.3368 234.1 17.4319 234.261C17.527 234.42 17.6537 234.546 17.8122 234.642C17.973 234.734 18.151 234.78 18.346 234.78ZM21.1986 235.402L21.2022 230.137H21.9774V233.355L23.5276 231.453H24.5002L22.8622 233.428L24.6684 235.402H23.63L21.9774 233.501V235.402H21.1986Z" fill="#D3E1F5"/>
<g opacity="0.5">
<path d="M72.9263 194.005L46.8342 207.352V247.616L518.342 247.616V108.653C512.884 105.5 486.279 89.7133 464.395 92.5001C445.401 94.9188 436.832 97.8225 427.404 103C401.91 117 397.204 146.244 382.779 155.564C368.355 164.885 352.619 167.109 334.844 163.19C317.068 159.271 320.273 154.823 303.518 147.091C286.762 139.359 268.841 138.724 252.668 140.524C236.651 142.307 228.766 147.14 216.937 154.391L216.591 154.603C204.568 161.972 191.793 182.53 167.794 187.682C143.795 192.834 140.091 184.989 117.381 182.53C99.2125 180.563 80.1744 189.36 72.9263 194.005Z" fill="url(#paint1_linear_1_670)"/>
<path d="M46.8998 207.315L72.992 193.968C80.24 189.323 99.2782 180.527 117.446 182.494C140.157 184.952 143.861 192.797 167.86 187.645C191.859 182.494 204.633 161.936 216.656 154.567C228.68 147.198 236.561 142.288 252.734 140.487C268.906 138.687 286.828 139.322 303.583 147.054C320.339 154.786 317.134 159.234 334.909 163.153C352.685 167.072 368.421 164.848 382.845 155.527C397.269 146.207 401.576 120 424.904 105C438.901 95.9999 474.393 80 518.882 108.262" stroke="url(#paint2_linear_1_670)" stroke-width="1.4625"/>
</g>
<path fill-rule="evenodd" clip-rule="evenodd" d="M162.967 143C159.653 143 156.967 145.686 156.967 149V161.667C156.967 164.98 159.653 167.667 162.967 167.667H182.337L185.811 172.386L189.031 167.667H206.587C209.9 167.667 212.587 164.98 212.587 161.667V149C212.587 145.686 209.9 143 206.587 143H162.967Z" fill="#3D7AE5"/>
<path d="M169.55 159.995V158.81H170.755V159.995H169.55ZM169.55 151.995V150.81H170.755V151.995H169.55ZM170.18 159.15C169.673 159.15 169.22 159.057 168.82 158.87C168.42 158.683 168.091 158.42 167.835 158.08C167.581 157.74 167.42 157.337 167.35 156.87L168.54 156.68C168.633 157.09 168.833 157.417 169.14 157.66C169.45 157.9 169.82 158.02 170.25 158.02C170.663 158.02 171.003 157.923 171.27 157.73C171.536 157.533 171.67 157.285 171.67 156.985C171.67 156.775 171.606 156.605 171.48 156.475C171.353 156.342 171.15 156.232 170.87 156.145L169.135 155.605C168.125 155.292 167.62 154.678 167.62 153.765C167.62 153.338 167.721 152.967 167.925 152.65C168.131 152.33 168.421 152.085 168.795 151.915C169.168 151.742 169.608 151.657 170.115 151.66C170.585 151.663 171.003 151.748 171.37 151.915C171.74 152.082 172.046 152.322 172.29 152.635C172.536 152.948 172.711 153.325 172.815 153.765L171.58 153.99C171.533 153.753 171.441 153.545 171.305 153.365C171.168 153.185 170.996 153.045 170.79 152.945C170.583 152.845 170.353 152.792 170.1 152.785C169.856 152.782 169.638 152.82 169.445 152.9C169.251 152.977 169.098 153.087 168.985 153.23C168.871 153.37 168.815 153.528 168.815 153.705C168.815 153.902 168.893 154.07 169.05 154.21C169.21 154.35 169.461 154.47 169.805 154.57L171.1 154.945C171.723 155.125 172.171 155.37 172.445 155.68C172.721 155.987 172.86 156.395 172.86 156.905C172.86 157.352 172.748 157.743 172.525 158.08C172.301 158.417 171.988 158.68 171.585 158.87C171.181 159.057 170.713 159.15 170.18 159.15ZM175.746 158.99V157.94L178.826 155.195C179.066 154.982 179.233 154.78 179.326 154.59C179.419 154.4 179.466 154.217 179.466 154.04C179.466 153.8 179.414 153.587 179.311 153.4C179.208 153.21 179.064 153.06 178.881 152.95C178.701 152.84 178.493 152.785 178.256 152.785C178.006 152.785 177.784 152.843 177.591 152.96C177.401 153.073 177.253 153.225 177.146 153.415C177.039 153.605 176.989 153.81 176.996 154.03H175.756C175.756 153.55 175.863 153.132 176.076 152.775C176.293 152.418 176.589 152.142 176.966 151.945C177.346 151.748 177.784 151.65 178.281 151.65C178.741 151.65 179.154 151.753 179.521 151.96C179.888 152.163 180.176 152.447 180.386 152.81C180.596 153.17 180.701 153.585 180.701 154.055C180.701 154.398 180.654 154.687 180.561 154.92C180.468 155.153 180.328 155.368 180.141 155.565C179.958 155.762 179.729 155.98 179.456 156.22L177.271 158.155L177.161 157.855H180.701V158.99H175.746ZM182.103 159V157.765H183.338V159H182.103ZM187.43 159.15C186.96 159.15 186.537 159.04 186.16 158.82C185.787 158.597 185.49 158.288 185.27 157.895C185.05 157.502 184.94 157.05 184.94 156.54V154.35C184.94 153.803 185.048 153.328 185.265 152.925C185.485 152.522 185.792 152.21 186.185 151.99C186.582 151.77 187.042 151.66 187.565 151.66C187.928 151.66 188.273 151.722 188.6 151.845C188.927 151.965 189.217 152.158 189.47 152.425L188.6 153.27C188.473 153.12 188.318 153.002 188.135 152.915C187.955 152.828 187.765 152.785 187.565 152.785C187.285 152.785 187.04 152.852 186.83 152.985C186.62 153.115 186.457 153.287 186.34 153.5C186.227 153.713 186.17 153.942 186.17 154.185V155.38L185.95 155.14C186.157 154.9 186.405 154.713 186.695 154.58C186.985 154.443 187.288 154.375 187.605 154.375C188.058 154.375 188.458 154.478 188.805 154.685C189.152 154.888 189.425 155.168 189.625 155.525C189.825 155.878 189.925 156.282 189.925 156.735C189.925 157.185 189.81 157.593 189.58 157.96C189.353 158.323 189.052 158.613 188.675 158.83C188.298 159.043 187.883 159.15 187.43 159.15ZM187.43 157.995C187.663 157.995 187.877 157.94 188.07 157.83C188.263 157.717 188.417 157.565 188.53 157.375C188.647 157.182 188.705 156.968 188.705 156.735C188.705 156.502 188.648 156.288 188.535 156.095C188.422 155.902 188.268 155.748 188.075 155.635C187.885 155.518 187.673 155.46 187.44 155.46C187.207 155.46 186.993 155.518 186.8 155.635C186.607 155.748 186.453 155.902 186.34 156.095C186.227 156.288 186.17 156.502 186.17 156.735C186.17 156.962 186.225 157.172 186.335 157.365C186.448 157.555 186.6 157.708 186.79 157.825C186.983 157.938 187.197 157.995 187.43 157.995ZM193.741 159.15C193.231 159.15 192.781 159.042 192.391 158.825C192.001 158.605 191.696 158.3 191.476 157.91C191.259 157.52 191.151 157.07 191.151 156.56V154.24C191.151 153.73 191.259 153.28 191.476 152.89C191.696 152.5 192.001 152.197 192.391 151.98C192.781 151.76 193.231 151.65 193.741 151.65C194.251 151.65 194.699 151.76 195.086 151.98C195.476 152.197 195.781 152.5 196.001 152.89C196.221 153.28 196.331 153.73 196.331 154.24V156.56C196.331 157.07 196.221 157.52 196.001 157.91C195.781 158.3 195.476 158.605 195.086 158.825C194.699 159.042 194.251 159.15 193.741 159.15ZM193.741 158.005C193.994 158.005 194.224 157.945 194.431 157.825C194.638 157.702 194.801 157.538 194.921 157.335C195.041 157.128 195.101 156.898 195.101 156.645V154.15C195.101 153.893 195.041 153.663 194.921 153.46C194.801 153.253 194.638 153.09 194.431 152.97C194.224 152.847 193.994 152.785 193.741 152.785C193.488 152.785 193.258 152.847 193.051 152.97C192.844 153.09 192.681 153.253 192.561 153.46C192.441 153.663 192.381 153.893 192.381 154.15V156.645C192.381 156.898 192.441 157.128 192.561 157.335C192.681 157.538 192.844 157.702 193.051 157.825C193.258 157.945 193.488 158.005 193.741 158.005ZM200.323 159.15C199.813 159.15 199.363 159.042 198.973 158.825C198.583 158.605 198.278 158.3 198.058 157.91C197.841 157.52 197.733 157.07 197.733 156.56V154.24C197.733 153.73 197.841 153.28 198.058 152.89C198.278 152.5 198.583 152.197 198.973 151.98C199.363 151.76 199.813 151.65 200.323 151.65C200.833 151.65 201.281 151.76 201.668 151.98C202.058 152.197 202.363 152.5 202.583 152.89C202.803 153.28 202.913 153.73 202.913 154.24V156.56C202.913 157.07 202.803 157.52 202.583 157.91C202.363 158.3 202.058 158.605 201.668 158.825C201.281 159.042 200.833 159.15 200.323 159.15ZM200.323 158.005C200.576 158.005 200.806 157.945 201.013 157.825C201.22 157.702 201.383 157.538 201.503 157.335C201.623 157.128 201.683 156.898 201.683 156.645V154.15C201.683 153.893 201.623 153.663 201.503 153.46C201.383 153.253 201.22 153.09 201.013 152.97C200.806 152.847 200.576 152.785 200.323 152.785C200.07 152.785 199.84 152.847 199.633 152.97C199.426 153.09 199.263 153.253 199.143 153.46C199.023 153.663 198.963 153.893 198.963 154.15V156.645C198.963 156.898 199.023 157.128 199.143 157.335C199.263 157.538 199.426 157.702 199.633 157.825C199.84 157.945 200.07 158.005 200.323 158.005Z" fill="white"/>
<ellipse cx="185.96" cy="180" rx="3.99906" ry="4" fill="url(#paint3_linear_1_670)" stroke="#393A52" stroke-width="2"/>
<path d="M16 58.6725L19.5347 55.3112C19.5623 55.2849 19.6054 55.2843 19.6338 55.3096L21.6683 57.1259C21.6971 57.1516 21.741 57.1505 21.7684 57.1233L25.6032 53.3275" stroke="#01B8E3" stroke-width="1.4625"/>
<path d="M22.537 53.3275H25.6052V56.3956" stroke="#01B8E3" stroke-width="1.4625"/>
<path d="M36.052 58.6282V56.7957H34.2195V55.8282H36.052V54.0008H37.0194V55.8282H38.8417V56.7957H37.0194V58.6282H36.052ZM42.7196 60.1536C42.2384 60.1536 41.805 60.041 41.4194 59.8157C41.0372 59.5871 40.7335 59.2714 40.5083 58.8688C40.283 58.4661 40.1704 58.0037 40.1704 57.4816V55.2396C40.1704 54.6799 40.2813 54.1936 40.5031 53.7807C40.7284 53.3678 41.0423 53.0487 41.445 52.8235C41.8511 52.5983 42.322 52.4857 42.8578 52.4857C43.2297 52.4857 43.5829 52.5488 43.9173 52.6751C44.2518 52.7979 44.5487 52.9958 44.808 53.2688L43.9173 54.1339C43.7877 53.9803 43.629 53.8592 43.4413 53.7705C43.257 53.6818 43.0625 53.6374 42.8578 53.6374C42.5711 53.6374 42.3203 53.7056 42.1053 53.8421C41.8903 53.9752 41.7231 54.151 41.6037 54.3694C41.4876 54.5878 41.4296 54.8215 41.4296 55.0706V56.294L41.2044 56.0483C41.416 55.8026 41.6702 55.6115 41.9671 55.475C42.264 55.3351 42.5745 55.2652 42.8987 55.2652C43.3628 55.2652 43.7723 55.3709 44.1272 55.5825C44.4821 55.7907 44.7619 56.0773 44.9667 56.4425C45.1714 56.8042 45.2738 57.2171 45.2738 57.6812C45.2738 58.1419 45.1561 58.5599 44.9206 58.9353C44.6886 59.3073 44.3797 59.6041 43.9941 59.826C43.6085 60.0444 43.1837 60.1536 42.7196 60.1536ZM42.7196 58.9711C42.9584 58.9711 43.1768 58.9148 43.3748 58.8022C43.5727 58.6862 43.7297 58.5309 43.8457 58.3364C43.9651 58.1385 44.0248 57.9201 44.0248 57.6812C44.0248 57.4423 43.9668 57.2239 43.8508 57.026C43.7348 56.8281 43.5778 56.6711 43.3799 56.5551C43.1854 56.4356 42.9687 56.3759 42.7298 56.3759C42.4909 56.3759 42.2725 56.4356 42.0746 56.5551C41.8767 56.6711 41.7197 56.8281 41.6037 57.026C41.4876 57.2239 41.4296 57.4423 41.4296 57.6812C41.4296 57.9133 41.4859 58.1282 41.5986 58.3262C41.7146 58.5207 41.8698 58.6777 42.0644 58.7971C42.2623 58.9131 42.4807 58.9711 42.7196 58.9711ZM46.4265 61.3053L46.4982 60.7729C46.6551 60.7866 46.7797 60.7593 46.8718 60.691C46.964 60.6262 47.0254 60.5324 47.0561 60.4095C47.0902 60.2901 47.0988 60.1536 47.0817 60H46.4265V58.6845H47.6908V60.0512C47.6908 60.4982 47.585 60.8361 47.3735 61.0647C47.1619 61.2933 46.8462 61.3735 46.4265 61.3053ZM50.0118 60L52.5507 53.7961H49.331V52.629H53.8713V53.7961L51.3427 60H50.0118ZM57.477 52.4857C57.9582 52.4857 58.3915 52.6 58.7772 52.8286C59.1628 53.0539 59.4665 53.3678 59.6883 53.7705C59.9135 54.1697 60.0261 54.6304 60.0261 55.1525V57.3997C60.0261 57.9559 59.9135 58.4422 59.6883 58.8585C59.4665 59.2714 59.1542 59.5905 58.7516 59.8157C58.3489 60.041 57.878 60.1536 57.3388 60.1536C56.9668 60.1536 56.6153 60.0904 56.2843 59.9642C55.9533 59.8345 55.6564 59.6366 55.3937 59.3704L56.2792 58.5053C56.4123 58.6589 56.571 58.78 56.7553 58.8688C56.9429 58.9541 57.1375 58.9967 57.3388 58.9967C57.6254 58.9967 57.8763 58.9302 58.0912 58.7971C58.3062 58.6606 58.4734 58.4848 58.5929 58.2699C58.7123 58.0515 58.772 57.8177 58.772 57.5686V56.3452L58.9921 56.5909C58.784 56.8366 58.5315 57.0294 58.2346 57.1693C57.9377 57.3058 57.6254 57.3741 57.2978 57.3741C56.8372 57.3741 56.4277 57.2683 56.0693 57.0567C55.7144 56.8451 55.4346 56.5585 55.2299 56.1968C55.0285 55.8316 54.9279 55.4187 54.9279 54.958C54.9279 54.4973 55.0439 54.081 55.2759 53.7091C55.508 53.3337 55.8168 53.0368 56.2024 52.8184C56.5915 52.5966 57.0163 52.4857 57.477 52.4857ZM57.477 53.663C57.2381 53.663 57.0197 53.721 56.8218 53.837C56.6239 53.953 56.4669 54.11 56.3509 54.3079C56.2348 54.5025 56.1768 54.7192 56.1768 54.958C56.1768 55.1969 56.2331 55.4153 56.3458 55.6132C56.4618 55.8112 56.617 55.9681 56.8116 56.0842C57.0095 56.2002 57.2279 56.2582 57.4668 56.2582C57.7056 56.2582 57.924 56.2002 58.122 56.0842C58.3199 55.9681 58.4769 55.8112 58.5929 55.6132C58.7123 55.4153 58.772 55.1969 58.772 54.958C58.772 54.726 58.714 54.5127 58.598 54.3182C58.482 54.1203 58.325 53.9616 58.1271 53.8421C57.9326 53.7227 57.7159 53.663 57.477 53.663ZM62.479 60L61.66 59.181L68.2171 52.629L69.0361 53.4531L62.479 60ZM67.5005 60.1536C67.1626 60.1536 66.8538 60.0717 66.574 59.9079C66.2976 59.7406 66.0757 59.5188 65.9085 59.2424C65.7413 58.9626 65.6577 58.6521 65.6577 58.3108C65.6577 57.9764 65.743 57.6693 65.9137 57.3894C66.0843 57.1096 66.3095 56.8861 66.5893 56.7189C66.8692 56.5517 67.1729 56.4681 67.5005 56.4681C67.8383 56.4681 68.1471 56.5517 68.427 56.7189C68.7068 56.8827 68.9286 57.1045 69.0924 57.3843C69.2596 57.6607 69.3432 57.9696 69.3432 58.3108C69.3432 58.6521 69.2596 58.9626 69.0924 59.2424C68.9286 59.5188 68.7068 59.7406 68.427 59.9079C68.1471 60.0717 67.8383 60.1536 67.5005 60.1536ZM67.5005 59.0991C67.6404 59.0991 67.7701 59.0633 67.8895 58.9916C68.0123 58.9199 68.1096 58.8244 68.1813 58.705C68.2529 58.5855 68.2888 58.4541 68.2888 58.3108C68.2888 58.1675 68.2529 58.0361 68.1813 57.9167C68.1096 57.7972 68.0123 57.7017 67.8895 57.63C67.7701 57.5584 67.6404 57.5225 67.5005 57.5225C67.3571 57.5225 67.2258 57.5584 67.1063 57.63C66.9869 57.7017 66.8896 57.7972 66.8146 57.9167C66.7429 58.0361 66.7071 58.1675 66.7071 58.3108C66.7071 58.4541 66.7429 58.5855 66.8146 58.705C66.8896 58.8244 66.9869 58.9199 67.1063 58.9916C67.2258 59.0633 67.3571 59.0991 67.5005 59.0991ZM63.1956 56.1609C62.8578 56.1609 62.5489 56.079 62.2691 55.9152C61.9893 55.748 61.7658 55.5262 61.5985 55.2498C61.4347 54.97 61.3528 54.6594 61.3528 54.3182C61.3528 53.9838 61.4382 53.6766 61.6088 53.3968C61.7794 53.117 62.0046 52.8935 62.2845 52.7263C62.5643 52.559 62.868 52.4754 63.1956 52.4754C63.5334 52.4754 63.8406 52.559 64.117 52.7263C64.3968 52.8901 64.6203 53.1119 64.7875 53.3917C64.9547 53.6681 65.0384 53.9769 65.0384 54.3182C65.0384 54.6594 64.9547 54.97 64.7875 55.2498C64.6203 55.5262 64.3968 55.748 64.117 55.9152C63.8406 56.079 63.5334 56.1609 63.1956 56.1609ZM63.1956 55.1065C63.3389 55.1065 63.4703 55.0706 63.5897 54.999C63.7092 54.9273 63.8047 54.8318 63.8764 54.7123C63.9481 54.5929 63.9839 54.4615 63.9839 54.3182C63.9839 54.1749 63.9481 54.0435 63.8764 53.924C63.8047 53.8046 63.7092 53.7091 63.5897 53.6374C63.4703 53.5657 63.3389 53.5299 63.1956 53.5299C63.0523 53.5299 62.9209 53.5657 62.8015 53.6374C62.682 53.7091 62.5865 53.8046 62.5148 53.924C62.4431 54.0435 62.4073 54.1749 62.4073 54.3182C62.4073 54.4615 62.4431 54.5929 62.5148 54.7123C62.5865 54.8318 62.682 54.9273 62.8015 54.999C62.9209 55.0706 63.0523 55.1065 63.1956 55.1065Z" fill="#01B8E3"/>
<rect x="455.382" y="42.5" width="63.1179" height="27" rx="7.5" stroke="#4B6EAC"/>
<g clip-path="url(#clip0_1_670)">
<path d="M471.882 52H465.882C464.778 52 463.882 52.8954 463.882 54V59C463.882 60.1046 464.778 61 465.882 61H471.882C472.987 61 473.882 60.1046 473.882 59V54C473.882 52.8954 472.987 52 471.882 52Z" stroke="#4B6EAC" stroke-linecap="round" stroke-linejoin="round"/>
<path d="M463.882 55H473.882M466.882 51V53V51ZM470.882 51V53V51Z" stroke="#4B6EAC" stroke-linecap="round" stroke-linejoin="round"/>
</g>
<path d="M480.698 59L479.122 53.16H479.93L481.298 58.488L480.922 58.296H481.874L481.458 58.488L482.57 53.4H483.306L482.034 59H480.698ZM484.21 59L482.81 53.4H483.57L484.826 58.488L484.426 58.296H485.386L484.978 58.488L486.202 53.16H486.986L485.554 59H484.21ZM489.583 59.144C489.209 59.144 488.887 59.08 488.615 58.952C488.343 58.824 488.121 58.656 487.951 58.448C487.78 58.2347 487.652 57.9973 487.567 57.736C487.487 57.4747 487.447 57.208 487.447 56.936V56.792C487.447 56.5147 487.487 56.2453 487.567 55.984C487.652 55.7227 487.78 55.488 487.951 55.28C488.121 55.0667 488.337 54.8987 488.599 54.776C488.865 54.648 489.177 54.584 489.535 54.584C489.999 54.584 490.38 54.6853 490.679 54.888C490.983 55.0853 491.207 55.3413 491.351 55.656C491.5 55.9707 491.575 56.3067 491.575 56.664V57.008H487.783V56.432H491.015L490.839 56.744C490.839 56.44 490.791 56.1787 490.695 55.96C490.599 55.736 490.455 55.5627 490.263 55.44C490.071 55.3173 489.828 55.256 489.535 55.256C489.231 55.256 488.977 55.3253 488.775 55.464C488.577 55.6027 488.428 55.792 488.327 56.032C488.231 56.272 488.183 56.5493 488.183 56.864C488.183 57.168 488.231 57.4427 488.327 57.688C488.428 57.928 488.583 58.12 488.791 58.264C488.999 58.4027 489.263 58.472 489.583 58.472C489.919 58.472 490.191 58.3973 490.399 58.248C490.612 58.0987 490.74 57.9253 490.783 57.728H491.503C491.444 58.0213 491.327 58.2747 491.151 58.488C490.975 58.7013 490.753 58.864 490.487 58.976C490.22 59.088 489.919 59.144 489.583 59.144ZM494.481 59.144C494.108 59.144 493.785 59.08 493.513 58.952C493.241 58.824 493.02 58.656 492.849 58.448C492.678 58.2347 492.55 57.9973 492.465 57.736C492.385 57.4747 492.345 57.208 492.345 56.936V56.792C492.345 56.5147 492.385 56.2453 492.465 55.984C492.55 55.7227 492.678 55.488 492.849 55.28C493.02 55.0667 493.236 54.8987 493.497 54.776C493.764 54.648 494.076 54.584 494.433 54.584C494.897 54.584 495.278 54.6853 495.577 54.888C495.881 55.0853 496.105 55.3413 496.249 55.656C496.398 55.9707 496.473 56.3067 496.473 56.664V57.008H492.681V56.432H495.913L495.737 56.744C495.737 56.44 495.689 56.1787 495.593 55.96C495.497 55.736 495.353 55.5627 495.161 55.44C494.969 55.3173 494.726 55.256 494.433 55.256C494.129 55.256 493.876 55.3253 493.673 55.464C493.476 55.6027 493.326 55.792 493.225 56.032C493.129 56.272 493.081 56.5493 493.081 56.864C493.081 57.168 493.129 57.4427 493.225 57.688C493.326 57.928 493.481 58.12 493.689 58.264C493.897 58.4027 494.161 58.472 494.481 58.472C494.817 58.472 495.089 58.3973 495.297 58.248C495.51 58.0987 495.638 57.9253 495.681 57.728H496.401C496.342 58.0213 496.225 58.2747 496.049 58.488C495.873 58.7013 495.652 58.864 495.385 58.976C495.118 59.088 494.817 59.144 494.481 59.144ZM500.507 59L498.899 57.008H498.195L500.155 54.728H500.963L499.187 56.784L499.243 56.376L501.395 59H500.507ZM497.563 59V53.16H498.331V59H497.563Z" fill="#D3E1F5"/>
<path d="M511 54.6877L508.507 57.3123L505.882 54.6877" stroke="#D3E1F5" stroke-width="1.09687"/>
<path d="M17.696 31V19.32H19.776L23.232 27.112H23.488L26.928 19.32H29.024V31H27.456V21.032L27.568 21.064L24.256 28.584H22.336L19.008 21.064L19.136 21.032V31H17.696ZM36.1268 31.288C35.3801 31.288 34.7241 31.16 34.1588 30.904C33.5934 30.648 33.1134 30.312 32.7188 29.896C32.3348 29.4693 32.0414 28.9947 31.8388 28.472C31.6468 27.9493 31.5508 27.416 31.5508 26.872V26.584C31.5508 26.04 31.6521 25.5067 31.8548 24.984C32.0574 24.4507 32.3561 23.976 32.7508 23.56C33.1454 23.1333 33.6254 22.7973 34.1908 22.552C34.7561 22.296 35.4014 22.168 36.1268 22.168C36.8521 22.168 37.4974 22.296 38.0628 22.552C38.6281 22.7973 39.1081 23.1333 39.5028 23.56C39.8974 23.976 40.1961 24.4507 40.3988 24.984C40.6014 25.5067 40.7028 26.04 40.7028 26.584V26.872C40.7028 27.416 40.6014 27.9493 40.3988 28.472C40.2068 28.9947 39.9134 29.4693 39.5188 29.896C39.1348 30.312 38.6601 30.648 38.0948 30.904C37.5294 31.16 36.8734 31.288 36.1268 31.288ZM36.1268 29.912C36.7668 29.912 37.3108 29.7733 37.7588 29.496C38.2174 29.208 38.5641 28.824 38.7987 28.344C39.0441 27.864 39.1667 27.3253 39.1667 26.728C39.1667 26.12 39.0441 25.576 38.7987 25.096C38.5534 24.616 38.2014 24.2373 37.7428 23.96C37.2948 23.6827 36.7561 23.544 36.1268 23.544C35.5081 23.544 34.9694 23.6827 34.5108 23.96C34.0521 24.2373 33.7001 24.616 33.4548 25.096C33.2094 25.576 33.0868 26.12 33.0868 26.728C33.0868 27.3253 33.2041 27.864 33.4388 28.344C33.6841 28.824 34.0308 29.208 34.4788 29.496C34.9374 29.7733 35.4868 29.912 36.1268 29.912ZM43.0033 31V22.456H44.2193V26.12H44.0273C44.0273 25.2773 44.1393 24.568 44.3633 23.992C44.5979 23.4053 44.9499 22.9627 45.4193 22.664C45.8886 22.3547 46.4806 22.2 47.1953 22.2H47.2593C48.3366 22.2 49.1313 22.536 49.6433 23.208C50.1659 23.88 50.4273 24.8507 50.4273 26.12V31H48.8913V25.8C48.8913 25.1387 48.7046 24.6107 48.3313 24.216C47.9579 23.8107 47.4459 23.608 46.7953 23.608C46.1233 23.608 45.5793 23.816 45.1633 24.232C44.7473 24.648 44.5393 25.2027 44.5393 25.896V31H43.0033ZM56.8696 31.288C56.123 31.288 55.4776 31.16 54.9336 30.904C54.3896 30.648 53.947 30.312 53.6056 29.896C53.2643 29.4693 53.0083 28.9947 52.8376 28.472C52.6776 27.9493 52.5976 27.416 52.5976 26.872V26.584C52.5976 26.0293 52.6776 25.4907 52.8376 24.968C53.0083 24.4453 53.2643 23.976 53.6056 23.56C53.947 23.1333 54.379 22.7973 54.9016 22.552C55.435 22.296 56.059 22.168 56.7736 22.168C57.7016 22.168 58.4643 22.3707 59.0616 22.776C59.6696 23.1707 60.1176 23.6827 60.4056 24.312C60.7043 24.9413 60.8536 25.6133 60.8536 26.328V27.016H53.2696V25.864H59.7336L59.3816 26.488C59.3816 25.88 59.2856 25.3573 59.0936 24.92C58.9016 24.472 58.6136 24.1253 58.2296 23.88C57.8456 23.6347 57.3603 23.512 56.7736 23.512C56.1656 23.512 55.659 23.6507 55.2536 23.928C54.859 24.2053 54.5603 24.584 54.3576 25.064C54.1656 25.544 54.0696 26.0987 54.0696 26.728C54.0696 27.336 54.1656 27.8853 54.3576 28.376C54.5603 28.856 54.8696 29.24 55.2856 29.528C55.7016 29.8053 56.2296 29.944 56.8696 29.944C57.5416 29.944 58.0856 29.7947 58.5016 29.496C58.9283 29.1973 59.1843 28.8507 59.2696 28.456H60.7096C60.5923 29.0427 60.3576 29.5493 60.0056 29.976C59.6536 30.4027 59.211 30.728 58.6776 30.952C58.1443 31.176 57.5416 31.288 56.8696 31.288ZM62.396 34.328V32.952H63.628C63.9907 32.952 64.2947 32.904 64.54 32.808C64.796 32.7227 65.004 32.5733 65.164 32.36C65.3347 32.1467 65.4733 31.864 65.58 31.512L68.268 22.456H69.772L66.924 31.912C66.7533 32.4773 66.5133 32.936 66.204 33.288C65.8947 33.6507 65.516 33.912 65.068 34.072C64.6307 34.2427 64.1187 34.328 63.532 34.328H62.396ZM65.004 30.808V29.528H66.86V30.808H65.004ZM64.844 30.808L61.788 22.456H63.356L66.284 30.808H64.844ZM75.5866 31V19.32H77.1546V31H75.5866ZM76.8346 25.8V24.392L81.8426 24.376V25.784L76.8346 25.8ZM76.8346 20.728V19.32H82.1146V20.728H76.8346ZM84.5055 31V19.32H86.0415V31H84.5055ZM83.3215 20.536V19.32H86.0415V20.536H83.3215ZM92.9236 31.288C92.177 31.288 91.521 31.16 90.9556 30.904C90.3903 30.648 89.9103 30.312 89.5156 29.896C89.1316 29.4693 88.8383 28.9947 88.6356 28.472C88.4436 27.9493 88.3476 27.416 88.3476 26.872V26.584C88.3476 26.04 88.449 25.5067 88.6516 24.984C88.8543 24.4507 89.153 23.976 89.5476 23.56C89.9423 23.1333 90.4223 22.7973 90.9876 22.552C91.553 22.296 92.1983 22.168 92.9236 22.168C93.649 22.168 94.2943 22.296 94.8596 22.552C95.425 22.7973 95.905 23.1333 96.2996 23.56C96.6943 23.976 96.993 24.4507 97.1956 24.984C97.3983 25.5067 97.4996 26.04 97.4996 26.584V26.872C97.4996 27.416 97.3983 27.9493 97.1956 28.472C97.0036 28.9947 96.7103 29.4693 96.3156 29.896C95.9316 30.312 95.457 30.648 94.8916 30.904C94.3263 31.16 93.6703 31.288 92.9236 31.288ZM92.9236 29.912C93.5636 29.912 94.1076 29.7733 94.5556 29.496C95.0143 29.208 95.361 28.824 95.5956 28.344C95.841 27.864 95.9636 27.3253 95.9636 26.728C95.9636 26.12 95.841 25.576 95.5956 25.096C95.3503 24.616 94.9983 24.2373 94.5396 23.96C94.0916 23.6827 93.553 23.544 92.9236 23.544C92.305 23.544 91.7663 23.6827 91.3076 23.96C90.849 24.2373 90.497 24.616 90.2516 25.096C90.0063 25.576 89.8836 26.12 89.8836 26.728C89.8836 27.3253 90.001 27.864 90.2356 28.344C90.481 28.824 90.8276 29.208 91.2756 29.496C91.7343 29.7733 92.2836 29.912 92.9236 29.912ZM102.14 31L103.868 22.744H105.948L107.964 31H106.652L104.636 22.776H105.148L103.404 31H102.14ZM101.356 31V29.784H103.132V31H101.356ZM101.004 31L98.5879 22.456H100.06L102.412 31H101.004ZM106.972 31V29.784H108.748V31H106.972ZM107.692 31L109.74 22.456H111.132L109.036 31H107.692Z" fill="white"/>
<defs>
<linearGradient id="paint0_linear_1_670" x1="0" y1="138.5" x2="535" y2="138.5" gradientUnits="userSpaceOnUse">
<stop stop-color="#F0F0F0"/>
<stop offset="1" stop-color="#F0F0F0" stop-opacity="0"/>
</linearGradient>
<linearGradient id="paint1_linear_1_670" x1="265.875" y1="113.556" x2="265.875" y2="247.615" gradientUnits="userSpaceOnUse">
<stop stop-color="#E0ECFC"/>
<stop offset="1" stop-color="white" stop-opacity="0"/>
</linearGradient>
<linearGradient id="paint2_linear_1_670" x1="46.8998" y1="168.671" x2="321.796" y2="-84.6975" gradientUnits="userSpaceOnUse">
<stop stop-color="#36D9FF"/>
<stop offset="1" stop-color="#4A00C5"/>
</linearGradient>
<linearGradient id="paint3_linear_1_670" x1="181.961" y1="180.114" x2="189.959" y2="180.114" gradientUnits="userSpaceOnUse">
<stop stop-color="#3E79E5"/>
<stop offset="1" stop-color="#01B8E3"/>
</linearGradient>
<clipPath id="clip0_1_670">
<rect width="12" height="12" fill="white" transform="translate(462.882 50)"/>
</clipPath>
</defs>
</svg>
