<svg width="16" height="16" viewBox="0 0 16 16" fill="none" xmlns="http://www.w3.org/2000/svg">
<path d="M14.5838 4.81339L9.78956 0.610415C9.35007 0.217322 8.78111 0 8.19147 0C7.60183 0 7.03288 0.217322 6.59338 0.610415L1.79912 4.81339C1.54532 5.04037 1.34279 5.31883 1.20501 5.6302C1.06723 5.94158 0.997369 6.27874 1.00008 6.61923V13.6029C1.00008 14.2386 1.25263 14.8483 1.70218 15.2979C2.15173 15.7474 2.76145 16 3.39721 16H12.9857C13.6215 16 14.2312 15.7474 14.6808 15.2979C15.1303 14.8483 15.3829 14.2386 15.3829 13.6029V6.61123C15.3844 6.27209 15.314 5.93647 15.1763 5.62656C15.0385 5.31664 14.8366 5.03948 14.5838 4.81339ZM9.78956 14.4019H6.59338V10.4067C6.59338 10.1948 6.67757 9.99153 6.82742 9.84168C6.97727 9.69183 7.18051 9.60765 7.39243 9.60765H8.99051C9.20243 9.60765 9.40567 9.69183 9.55552 9.84168C9.70537 9.99153 9.78956 10.1948 9.78956 10.4067V14.4019ZM13.7848 13.6029C13.7848 13.8148 13.7006 14.018 13.5507 14.1679C13.4009 14.3177 13.1977 14.4019 12.9857 14.4019H11.3876V10.4067C11.3876 9.77093 11.1351 9.16121 10.6855 8.71166C10.236 8.26212 9.62627 8.00956 8.99051 8.00956H7.39243C6.75667 8.00956 6.14695 8.26212 5.6974 8.71166C5.24785 9.16121 4.9953 9.77093 4.9953 10.4067V14.4019H3.39721C3.18529 14.4019 2.98205 14.3177 2.8322 14.1679C2.68235 14.018 2.59816 13.8148 2.59816 13.6029V6.61123C2.59831 6.49778 2.62261 6.38566 2.66945 6.28233C2.7163 6.179 2.78461 6.08683 2.86984 6.01195L7.6641 1.81697C7.80992 1.68887 7.99738 1.61822 8.19147 1.61822C8.38556 1.61822 8.57302 1.68887 8.71884 1.81697L13.5131 6.01195C13.5983 6.08683 13.6666 6.179 13.7135 6.28233C13.7603 6.38566 13.7846 6.49778 13.7848 6.61123V13.6029Z" fill="url(#paint0_linear_109_161)"/>
<defs>
<linearGradient id="paint0_linear_109_161" x1="1" y1="8.22857" x2="15.3829" y2="8.22857" gradientUnits="userSpaceOnUse">
<stop stop-color="#3E79E5"/>
<stop offset="1" stop-color="#01B8E3"/>
</linearGradient>
</defs>
</svg>
