<svg width="24" height="24" viewBox="0 0 24 24" fill="none" xmlns="http://www.w3.org/2000/svg">
<rect width="24" height="24" rx="5" fill="#D3E1F5" fill-opacity="0.3"/>
<g clip-path="url(#clip0_1_639)">
<path d="M14.5255 10.775L14.48 10.7584L13.6641 9.19671C13.4992 8.88091 13.2532 8.61653 12.9521 8.43206C12.651 8.24758 12.3063 8.15002 11.9548 8.15H9.85508C9.85508 8.15 9.85507 8.15 9.85507 8.15C9.448 8.14998 9.05146 8.28076 8.72165 8.52349C8.39186 8.76619 8.1456 9.10843 8.01736 9.50146C8.01736 9.50147 8.01736 9.50148 8.01735 9.50148L7.6337 10.6764C7.30038 10.8294 7.01619 11.0754 6.81413 11.3863C6.6037 11.71 6.4916 12.0896 6.49164 12.4778C6.49164 12.4778 6.49164 12.4778 6.49164 12.4778L6.49164 13.3125C6.49164 13.8658 6.80405 14.3447 7.25936 14.5767C7.32866 14.9164 7.50461 15.2247 7.76164 15.4543C8.03154 15.6954 8.37453 15.835 8.73354 15.8496C9.09255 15.8641 9.44538 15.7526 9.73323 15.5341C10.0004 15.3312 10.1965 15.0476 10.2947 14.725H13.1741C13.2722 15.0476 13.4684 15.3312 13.7355 15.5341C14.0234 15.7526 14.3762 15.8641 14.7352 15.8496C15.0942 15.835 15.4372 15.6954 15.7071 15.4543C15.9641 15.2247 16.1401 14.9164 16.2094 14.5768C16.4321 14.4636 16.621 14.2914 16.756 14.078C16.9004 13.8497 16.9771 13.5839 16.9771 13.3125V13.0583C16.977 12.651 16.8535 12.2536 16.6233 11.9205C16.393 11.5874 16.0672 11.3349 15.6902 11.198L15.6902 11.198L14.6467 10.8192V10.775H14.5467H14.5255ZM9.85501 9.1H9.85507H10.5324V10.775H8.58599L8.90396 9.80052L8.90396 9.80052C8.97071 9.59595 9.09872 9.4184 9.26948 9.2928C9.44021 9.16722 9.64507 9.09988 9.85501 9.1ZM12.8389 9.64181L13.431 10.775H11.467V9.1H11.9548H11.9548C12.136 9.09993 12.314 9.15016 12.4697 9.24548C12.6254 9.34081 12.7531 9.47773 12.8389 9.64181ZM7.42632 13.3128V13.3125V12.4778C7.42632 12.1829 7.54913 11.9134 7.74723 11.725H14.3638L15.3758 12.0925C15.3758 12.0925 15.3758 12.0925 15.3758 12.0925C15.5704 12.1632 15.7391 12.2938 15.8586 12.4666C15.9781 12.6395 16.0424 12.8462 16.0424 13.0583V13.3125C16.0424 13.3558 16.0366 13.3976 16.0258 13.4373C15.8952 13.2109 15.7113 13.0196 15.4891 12.8817C15.2088 12.7078 14.8819 12.6277 14.5544 12.653C14.227 12.6783 13.9158 12.8077 13.6645 13.0227C13.4329 13.2207 13.263 13.4821 13.174 13.775H10.2947C10.2057 13.4821 10.0358 13.2207 9.80429 13.0227C9.55299 12.8077 9.24177 12.6783 8.9143 12.653C8.58682 12.6277 8.25994 12.7078 7.97963 12.8817C7.75742 13.0196 7.57341 13.211 7.44278 13.4375C7.43183 13.3972 7.42621 13.3552 7.42632 13.3128ZM8.161 14.25C8.161 14.077 8.22835 13.9114 8.34761 13.7896C8.4668 13.668 8.62802 13.6 8.79567 13.6C8.96332 13.6 9.12454 13.668 9.24373 13.7896C9.36299 13.9114 9.43035 14.077 9.43035 14.25C9.43035 14.423 9.36299 14.5886 9.24373 14.7104C9.12454 14.832 8.96332 14.9 8.79567 14.9C8.62802 14.9 8.4668 14.832 8.34761 14.7104C8.22835 14.5886 8.161 14.423 8.161 14.25ZM14.6731 13.6C14.8407 13.6 15.0019 13.668 15.1211 13.7896C15.2404 13.9114 15.3077 14.077 15.3077 14.25C15.3077 14.423 15.2404 14.5886 15.1211 14.7104C15.0019 14.832 14.8407 14.9 14.6731 14.9C14.5054 14.9 14.3442 14.832 14.225 14.7104C14.1058 14.5886 14.0384 14.423 14.0384 14.25C14.0384 14.077 14.1058 13.9114 14.225 13.7896C14.3442 13.668 14.5054 13.6 14.6731 13.6Z" fill="url(#paint0_linear_1_639)" stroke="url(#paint1_linear_1_639)" stroke-width="0.2"/>
</g>
<defs>
<linearGradient id="paint0_linear_1_639" x1="6.59164" y1="12.1076" x2="16.8771" y2="12.1076" gradientUnits="userSpaceOnUse">
<stop stop-color="#3E79E5"/>
<stop offset="1" stop-color="#01B8E3"/>
</linearGradient>
<linearGradient id="paint1_linear_1_639" x1="6.59164" y1="12.1076" x2="16.8771" y2="12.1076" gradientUnits="userSpaceOnUse">
<stop stop-color="#3E79E5"/>
<stop offset="1" stop-color="#01B8E3"/>
</linearGradient>
<clipPath id="clip0_1_639">
<rect width="11.7548" height="12" fill="white" transform="translate(5.85696 6)"/>
</clipPath>
</defs>
</svg>
