<svg width="24" height="24" viewBox="0 0 24 24" fill="none" xmlns="http://www.w3.org/2000/svg">
<rect width="24" height="24" rx="5" fill="#D3E1F5" fill-opacity="0.3"/>
<path d="M15 7.5C15.1225 7.50002 15.2407 7.54498 15.3322 7.62636C15.4237 7.70774 15.4822 7.81987 15.4965 7.9415L15.5 8V16C15.4999 16.1274 15.4511 16.25 15.3636 16.3427C15.2761 16.4354 15.1565 16.4911 15.0293 16.4986C14.9021 16.5061 14.7768 16.4647 14.6791 16.3829C14.5814 16.3011 14.5186 16.185 14.5035 16.0585L14.5 16V13.5H14C13.8775 13.5 13.7593 13.455 13.6678 13.3736C13.5763 13.2923 13.5178 13.1801 13.5035 13.0585L13.5 13V10C13.5 8.895 14.25 7.5 15 7.5ZM12 7.5C12.1225 7.50002 12.2407 7.54498 12.3322 7.62636C12.4237 7.70774 12.4822 7.81987 12.4965 7.9415L12.5 8V10.5C12.4999 10.9434 12.3526 11.3743 12.0811 11.7249C11.8096 12.0755 11.4293 12.326 11 12.437V16C10.9999 16.1274 10.9511 16.25 10.8636 16.3427C10.7761 16.4354 10.6565 16.4911 10.5293 16.4986C10.4021 16.5061 10.2768 16.4647 10.1791 16.3829C10.0814 16.3011 10.0186 16.185 10.0035 16.0585L10 16V12.437C9.58773 12.3304 9.2202 12.0951 8.95088 11.7653C8.68156 11.4354 8.52449 11.0283 8.5025 10.603L8.5 10.5V8C8.50014 7.87256 8.54894 7.74998 8.63642 7.65732C8.72391 7.56465 8.84348 7.50888 8.9707 7.50141C9.09792 7.49395 9.22319 7.53534 9.32092 7.61713C9.41864 7.69893 9.48145 7.81495 9.4965 7.9415L9.5 8V10.5C9.5 10.6755 9.54621 10.848 9.63398 11C9.72175 11.152 9.84798 11.2782 10 11.366V8C10.0001 7.87256 10.0489 7.74998 10.1364 7.65732C10.2239 7.56465 10.3435 7.50888 10.4707 7.50141C10.5979 7.49395 10.7232 7.53534 10.8209 7.61713C10.9186 7.69893 10.9814 7.81495 10.9965 7.9415L11 8L11.0005 11.366C11.14 11.2853 11.258 11.1722 11.3444 11.0361C11.4307 10.9 11.4829 10.7451 11.4965 10.5845L11.5 10.5V8C11.5 7.86739 11.5527 7.74021 11.6464 7.64645C11.7402 7.55268 11.8674 7.5 12 7.5Z" fill="url(#paint0_linear_1_658)"/>
<defs>
<linearGradient id="paint0_linear_1_658" x1="8.5" y1="12.1283" x2="15.5" y2="12.1283" gradientUnits="userSpaceOnUse">
<stop stop-color="#3E79E5"/>
<stop offset="1" stop-color="#01B8E3"/>
</linearGradient>
</defs>
</svg>
