<svg width="24" height="24" viewBox="0 0 24 24" fill="none" xmlns="http://www.w3.org/2000/svg">
<rect width="24" height="24" rx="5" fill="#D3E1F5" fill-opacity="0.3"/>
<path d="M7 9.5C7 9.23478 7.10536 8.98043 7.29289 8.79289C7.48043 8.60536 7.73478 8.5 8 8.5H16C16.2652 8.5 16.5196 8.60536 16.7071 8.79289C16.8946 8.98043 17 9.23478 17 9.5V14.5C17 14.7652 16.8946 15.0196 16.7071 15.2071C16.5196 15.3946 16.2652 15.5 16 15.5H8C7.73478 15.5 7.48043 15.3946 7.29289 15.2071C7.10536 15.0196 7 14.7652 7 14.5V9.5Z" stroke="url(#paint0_linear_1_617)" stroke-linecap="round" stroke-linejoin="round"/>
<path d="M12 13.5C12.8284 13.5 13.5 12.8284 13.5 12C13.5 11.1716 12.8284 10.5 12 10.5C11.1716 10.5 10.5 11.1716 10.5 12C10.5 12.8284 11.1716 13.5 12 13.5Z" stroke="url(#paint1_linear_1_617)" stroke-linecap="round" stroke-linejoin="round"/>
<path d="M15 15.5C15 14.9696 15.2107 14.4609 15.5858 14.0858C15.9609 13.7107 16.4696 13.5 17 13.5M7 10.5C7.53043 10.5 8.03914 10.2893 8.41421 9.91421C8.78929 9.53914 9 9.03043 9 8.5L7 10.5Z" stroke="url(#paint2_linear_1_617)" stroke-linecap="round" stroke-linejoin="round"/>
<defs>
<linearGradient id="paint0_linear_1_617" x1="7" y1="12.1" x2="17" y2="12.1" gradientUnits="userSpaceOnUse">
<stop stop-color="#3E79E5"/>
<stop offset="1" stop-color="#01B8E3"/>
</linearGradient>
<linearGradient id="paint1_linear_1_617" x1="10.5" y1="12.0429" x2="13.5" y2="12.0429" gradientUnits="userSpaceOnUse">
<stop stop-color="#3E79E5"/>
<stop offset="1" stop-color="#01B8E3"/>
</linearGradient>
<linearGradient id="paint2_linear_1_617" x1="7" y1="12.1" x2="17" y2="12.1" gradientUnits="userSpaceOnUse">
<stop stop-color="#3E79E5"/>
<stop offset="1" stop-color="#01B8E3"/>
</linearGradient>
</defs>
</svg>
