<svg width="16" height="16" viewBox="0 0 16 16" fill="none" xmlns="http://www.w3.org/2000/svg">
<path d="M6.6 4.8H11.4C11.6122 4.8 11.8157 4.71571 11.9657 4.56568C12.1157 4.41566 12.2 4.21217 12.2 4C12.2 3.78783 12.1157 3.58434 11.9657 3.43431C11.8157 3.28429 11.6122 3.2 11.4 3.2H6.6C6.38783 3.2 6.18434 3.28429 6.03431 3.43431C5.88428 3.58434 5.8 3.78783 5.8 4C5.8 4.21217 5.88428 4.41566 6.03431 4.56568C6.18434 4.71571 6.38783 4.8 6.6 4.8ZM5 8H11.4C11.6122 8 11.8157 7.91571 11.9657 7.76568C12.1157 7.61566 12.2 7.41217 12.2 7.2C12.2 6.98783 12.1157 6.78434 11.9657 6.63431C11.8157 6.48429 11.6122 6.4 11.4 6.4H5C4.78783 6.4 4.58434 6.48429 4.43431 6.63431C4.28429 6.78434 4.2 6.98783 4.2 7.2C4.2 7.41217 4.28429 7.61566 4.43431 7.76568C4.58434 7.91571 4.78783 8 5 8ZM5 11.2H11.4C11.6122 11.2 11.8157 11.1157 11.9657 10.9657C12.1157 10.8157 12.2 10.6122 12.2 10.4C12.2 10.1878 12.1157 9.98434 11.9657 9.83431C11.8157 9.68429 11.6122 9.6 11.4 9.6H5C4.78783 9.6 4.58434 9.68429 4.43431 9.83431C4.28429 9.98434 4.2 10.1878 4.2 10.4C4.2 10.6122 4.28429 10.8157 4.43431 10.9657C4.58434 11.1157 4.78783 11.2 5 11.2ZM14.6 0H1.8C1.58783 0 1.38434 0.0842854 1.23431 0.234315C1.08429 0.384344 1 0.587827 1 0.8V15.2C1 15.3486 1.04137 15.4942 1.11948 15.6206C1.19759 15.747 1.30934 15.8491 1.44223 15.9155C1.57511 15.982 1.72388 16.0101 1.87184 15.9968C2.01981 15.9834 2.16114 15.9291 2.28 15.84L3.936 14.6L5.584 15.84C5.72248 15.9439 5.8909 16 6.064 16C6.2371 16 6.40552 15.9439 6.544 15.84L8.2 14.6L9.856 15.84C9.99448 15.9439 10.1629 16 10.336 16C10.5091 16 10.6775 15.9439 10.816 15.84L12.464 14.6L14.12 15.84C14.2394 15.929 14.3813 15.9829 14.5297 15.9956C14.6782 16.0084 14.8272 15.9794 14.96 15.912C15.0919 15.8455 15.2029 15.7438 15.2805 15.6181C15.3582 15.4925 15.3996 15.3477 15.4 15.2V0.8C15.4 0.587827 15.3157 0.384344 15.1657 0.234315C15.0157 0.0842854 14.8122 0 14.6 0ZM13.8 13.6L12.944 12.96C12.8055 12.8561 12.6371 12.8 12.464 12.8C12.2909 12.8 12.1225 12.8561 11.984 12.96L10.336 14.2L8.68 12.96C8.54152 12.8561 8.3731 12.8 8.2 12.8C8.0269 12.8 7.85848 12.8561 7.72 12.96L6.064 14.2L4.416 12.96C4.27752 12.8561 4.1091 12.8 3.936 12.8C3.7629 12.8 3.59448 12.8561 3.456 12.96L2.6 13.6V1.6H13.8V13.6Z" fill="#D3E1F5"/>
</svg>
