<svg width="252" height="68" viewBox="0 0 252 68" fill="none" xmlns="http://www.w3.org/2000/svg">
<g filter="url(#filter0_d_1_412)">
<rect x="136" width="48" height="48" rx="7.3125" fill="url(#paint0_linear_1_412)"/>
</g>
<path d="M158.222 20.4443H163.556C163.791 20.4443 164.017 20.3506 164.184 20.1839C164.351 20.0172 164.444 19.7912 164.444 19.5554C164.444 19.3197 164.351 19.0936 164.184 18.9269C164.017 18.7602 163.791 18.6665 163.556 18.6665H158.222C157.986 18.6665 157.76 18.7602 157.594 18.9269C157.427 19.0936 157.333 19.3197 157.333 19.5554C157.333 19.7912 157.427 20.0172 157.594 20.1839C157.76 20.3506 157.986 20.4443 158.222 20.4443V20.4443ZM156.444 23.9999H163.556C163.791 23.9999 164.017 23.9062 164.184 23.7395C164.351 23.5728 164.444 23.3467 164.444 23.111C164.444 22.8752 164.351 22.6491 164.184 22.4824C164.017 22.3157 163.791 22.2221 163.556 22.2221H156.444C156.209 22.2221 155.983 22.3157 155.816 22.4824C155.649 22.6491 155.556 22.8752 155.556 23.111C155.556 23.3467 155.649 23.5728 155.816 23.7395C155.983 23.9062 156.209 23.9999 156.444 23.9999ZM156.444 27.5554H163.556C163.791 27.5554 164.017 27.4618 164.184 27.2951C164.351 27.1284 164.444 26.9023 164.444 26.6665C164.444 26.4308 164.351 26.2047 164.184 26.038C164.017 25.8713 163.791 25.7776 163.556 25.7776H156.444C156.209 25.7776 155.983 25.8713 155.816 26.038C155.649 26.2047 155.556 26.4308 155.556 26.6665C155.556 26.9023 155.649 27.1284 155.816 27.2951C155.983 27.4618 156.209 27.5554 156.444 27.5554ZM167.111 15.111H152.889C152.653 15.111 152.427 15.2046 152.26 15.3713C152.094 15.538 152 15.7641 152 15.9999V31.9999C152 32.1649 152.046 32.3267 152.133 32.4672C152.22 32.6076 152.344 32.7211 152.491 32.7949C152.639 32.8687 152.804 32.9 152.969 32.8852C153.133 32.8703 153.29 32.81 153.422 32.711L155.262 31.3332L157.093 32.711C157.247 32.8264 157.434 32.8887 157.627 32.8887C157.819 32.8887 158.006 32.8264 158.16 32.711L160 31.3332L161.84 32.711C161.994 32.8264 162.181 32.8887 162.373 32.8887C162.566 32.8887 162.753 32.8264 162.907 32.711L164.738 31.3332L166.578 32.711C166.71 32.8099 166.868 32.8698 167.033 32.8839C167.198 32.898 167.364 32.8658 167.511 32.791C167.658 32.7171 167.781 32.6041 167.867 32.4644C167.954 32.3248 168 32.164 168 31.9999V15.9999C168 15.7641 167.906 15.538 167.74 15.3713C167.573 15.2046 167.347 15.111 167.111 15.111V15.111ZM166.222 30.2221L165.271 29.511C165.117 29.3956 164.93 29.3332 164.738 29.3332C164.545 29.3332 164.358 29.3956 164.204 29.511L162.373 30.8887L160.533 29.511C160.379 29.3956 160.192 29.3332 160 29.3332C159.808 29.3332 159.621 29.3956 159.467 29.511L157.627 30.8887L155.796 29.511C155.642 29.3956 155.455 29.3332 155.262 29.3332C155.07 29.3332 154.883 29.3956 154.729 29.511L153.778 30.2221V16.8887H166.222V30.2221Z" fill="url(#paint1_linear_1_412)" fill-opacity="0.2"/>
<path d="M158.222 20.4443H163.556C163.791 20.4443 164.017 20.3506 164.184 20.1839C164.351 20.0172 164.444 19.7912 164.444 19.5554C164.444 19.3197 164.351 19.0936 164.184 18.9269C164.017 18.7602 163.791 18.6665 163.556 18.6665H158.222C157.986 18.6665 157.76 18.7602 157.594 18.9269C157.427 19.0936 157.333 19.3197 157.333 19.5554C157.333 19.7912 157.427 20.0172 157.594 20.1839C157.76 20.3506 157.986 20.4443 158.222 20.4443V20.4443ZM156.444 23.9999H163.556C163.791 23.9999 164.017 23.9062 164.184 23.7395C164.351 23.5728 164.444 23.3467 164.444 23.111C164.444 22.8752 164.351 22.6491 164.184 22.4824C164.017 22.3157 163.791 22.2221 163.556 22.2221H156.444C156.209 22.2221 155.983 22.3157 155.816 22.4824C155.649 22.6491 155.556 22.8752 155.556 23.111C155.556 23.3467 155.649 23.5728 155.816 23.7395C155.983 23.9062 156.209 23.9999 156.444 23.9999ZM156.444 27.5554H163.556C163.791 27.5554 164.017 27.4618 164.184 27.2951C164.351 27.1284 164.444 26.9023 164.444 26.6665C164.444 26.4308 164.351 26.2047 164.184 26.038C164.017 25.8713 163.791 25.7776 163.556 25.7776H156.444C156.209 25.7776 155.983 25.8713 155.816 26.038C155.649 26.2047 155.556 26.4308 155.556 26.6665C155.556 26.9023 155.649 27.1284 155.816 27.2951C155.983 27.4618 156.209 27.5554 156.444 27.5554ZM167.111 15.111H152.889C152.653 15.111 152.427 15.2046 152.26 15.3713C152.094 15.538 152 15.7641 152 15.9999V31.9999C152 32.1649 152.046 32.3267 152.133 32.4672C152.22 32.6076 152.344 32.7211 152.491 32.7949C152.639 32.8687 152.804 32.9 152.969 32.8852C153.133 32.8703 153.29 32.81 153.422 32.711L155.262 31.3332L157.093 32.711C157.247 32.8264 157.434 32.8887 157.627 32.8887C157.819 32.8887 158.006 32.8264 158.16 32.711L160 31.3332L161.84 32.711C161.994 32.8264 162.181 32.8887 162.373 32.8887C162.566 32.8887 162.753 32.8264 162.907 32.711L164.738 31.3332L166.578 32.711C166.71 32.8099 166.868 32.8698 167.033 32.8839C167.198 32.898 167.364 32.8658 167.511 32.791C167.658 32.7171 167.781 32.6041 167.867 32.4644C167.954 32.3248 168 32.164 168 31.9999V15.9999C168 15.7641 167.906 15.538 167.74 15.3713C167.573 15.2046 167.347 15.111 167.111 15.111V15.111ZM166.222 30.2221L165.271 29.511C165.117 29.3956 164.93 29.3332 164.738 29.3332C164.545 29.3332 164.358 29.3956 164.204 29.511L162.373 30.8887L160.533 29.511C160.379 29.3956 160.192 29.3332 160 29.3332C159.808 29.3332 159.621 29.3956 159.467 29.511L157.627 30.8887L155.796 29.511C155.642 29.3956 155.455 29.3332 155.262 29.3332C155.07 29.3332 154.883 29.3956 154.729 29.511L153.778 30.2221V16.8887H166.222V30.2221Z" fill="#FAFBFC"/>
<defs>
<filter id="filter0_d_1_412" x="132" y="0" width="56" height="56" filterUnits="userSpaceOnUse" color-interpolation-filters="sRGB">
<feFlood flood-opacity="0" result="BackgroundImageFix"/>
<feColorMatrix in="SourceAlpha" type="matrix" values="0 0 0 0 0 0 0 0 0 0 0 0 0 0 0 0 0 0 127 0" result="hardAlpha"/>
<feOffset dy="4"/>
<feGaussianBlur stdDeviation="2"/>
<feComposite in2="hardAlpha" operator="out"/>
<feColorMatrix type="matrix" values="0 0 0 0 0 0 0 0 0 0 0 0 0 0 0 0 0 0 0.25 0"/>
<feBlend mode="normal" in2="BackgroundImageFix" result="effect1_dropShadow_1_412"/>
<feBlend mode="normal" in="SourceGraphic" in2="effect1_dropShadow_1_412" result="shape"/>
</filter>
<linearGradient id="paint0_linear_1_412" x1="136" y1="24.6857" x2="184" y2="24.6857" gradientUnits="userSpaceOnUse">
<stop stop-color="#3E79E5"/>
<stop offset="1" stop-color="#01B8E3"/>
</linearGradient>
<linearGradient id="paint1_linear_1_412" x1="152" y1="23.9999" x2="168" y2="23.9999" gradientUnits="userSpaceOnUse">
<stop stop-color="#F0F0F0"/>
<stop offset="1" stop-color="#F0F0F0" stop-opacity="0"/>
</linearGradient>
</defs>
</svg>
