<svg width="56" height="56" viewBox="0 0 56 56" fill="none" xmlns="http://www.w3.org/2000/svg">
<g filter="url(#filter0_d_123_207)">
<rect x="4" width="48" height="48" rx="7.3125" fill="url(#paint0_linear_123_207)"/>
</g>
<path fill-rule="evenodd" clip-rule="evenodd" d="M23.1116 26.6662C22.7096 26.6662 22.1417 26.7217 21.5505 26.8027C21.2743 26.8405 21.0637 27.0511 21.0259 27.3273C20.9449 27.9186 20.8894 28.4865 20.8894 28.8884C20.8894 29.2903 20.9449 29.8582 21.0259 30.4495C21.0637 30.7257 21.2743 30.9363 21.5505 30.9741C22.1417 31.0551 22.7096 31.1106 23.1116 31.1106C23.5135 31.1106 24.0814 31.0551 24.6726 30.9741C24.9488 30.9363 25.1594 30.7257 25.1973 30.4495C25.2782 29.8582 25.3338 29.2903 25.3338 28.8884C25.3338 28.4865 25.2782 27.9186 25.1973 27.3273C25.1594 27.0511 24.9488 26.8405 24.6726 26.8027C24.0814 26.7217 23.5135 26.6662 23.1116 26.6662ZM21.3093 25.0414C20.2427 25.1874 19.4106 26.0195 19.2645 27.0861C19.1808 27.6979 19.1116 28.3623 19.1116 28.8884C19.1116 29.4145 19.1808 30.0789 19.2645 30.6907C19.4106 31.7573 20.2427 32.5894 21.3093 32.7354C21.921 32.8192 22.5855 32.8884 23.1116 32.8884C23.6377 32.8884 24.3021 32.8192 24.9139 32.7354C25.9804 32.5894 26.8125 31.7573 26.9586 30.6907C27.0424 30.0789 27.1116 29.4145 27.1116 28.8884C27.1116 28.3623 27.0424 27.6979 26.9586 27.0861C26.8125 26.0195 25.9804 25.1874 24.9139 25.0414C24.3021 24.9576 23.6377 24.8884 23.1116 24.8884C22.5855 24.8884 21.921 24.9576 21.3093 25.0414Z" fill="url(#paint1_linear_123_207)" fill-opacity="0.2"/>
<path fill-rule="evenodd" clip-rule="evenodd" d="M23.1116 26.6662C22.7096 26.6662 22.1417 26.7217 21.5505 26.8027C21.2743 26.8405 21.0637 27.0511 21.0259 27.3273C20.9449 27.9186 20.8894 28.4865 20.8894 28.8884C20.8894 29.2903 20.9449 29.8582 21.0259 30.4495C21.0637 30.7257 21.2743 30.9363 21.5505 30.9741C22.1417 31.0551 22.7096 31.1106 23.1116 31.1106C23.5135 31.1106 24.0814 31.0551 24.6726 30.9741C24.9488 30.9363 25.1594 30.7257 25.1973 30.4495C25.2782 29.8582 25.3338 29.2903 25.3338 28.8884C25.3338 28.4865 25.2782 27.9186 25.1973 27.3273C25.1594 27.0511 24.9488 26.8405 24.6726 26.8027C24.0814 26.7217 23.5135 26.6662 23.1116 26.6662ZM21.3093 25.0414C20.2427 25.1874 19.4106 26.0195 19.2645 27.0861C19.1808 27.6979 19.1116 28.3623 19.1116 28.8884C19.1116 29.4145 19.1808 30.0789 19.2645 30.6907C19.4106 31.7573 20.2427 32.5894 21.3093 32.7354C21.921 32.8192 22.5855 32.8884 23.1116 32.8884C23.6377 32.8884 24.3021 32.8192 24.9139 32.7354C25.9804 32.5894 26.8125 31.7573 26.9586 30.6907C27.0424 30.0789 27.1116 29.4145 27.1116 28.8884C27.1116 28.3623 27.0424 27.6979 26.9586 27.0861C26.8125 26.0195 25.9804 25.1874 24.9139 25.0414C24.3021 24.9576 23.6377 24.8884 23.1116 24.8884C22.5855 24.8884 21.921 24.9576 21.3093 25.0414Z" fill="#FAFBFC"/>
<path fill-rule="evenodd" clip-rule="evenodd" d="M32.8895 16.8885C32.4876 16.8885 31.9197 16.944 31.3285 17.025C31.0523 17.0628 30.8417 17.2734 30.8038 17.5496C30.7229 18.1408 30.6673 18.7087 30.6673 19.1107C30.6673 19.5126 30.7229 20.0805 30.8038 20.6717C30.8417 20.9479 31.0523 21.1586 31.3285 21.1964C31.9197 21.2774 32.4876 21.3329 32.8895 21.3329C33.2915 21.3329 33.8594 21.2774 34.4506 21.1964C34.7268 21.1586 34.9374 20.9479 34.9752 20.6717C35.0562 20.0805 35.1117 19.5126 35.1117 19.1107C35.1117 18.7087 35.0562 18.1408 34.9752 17.5496C34.9374 17.2734 34.7268 17.0628 34.4506 17.025C33.8594 16.944 33.2915 16.8885 32.8895 16.8885ZM31.0872 15.2637C30.0207 15.4097 29.1886 16.2418 29.0425 17.3084C28.9587 17.9202 28.8895 18.5846 28.8895 19.1107C28.8895 19.6368 28.9587 20.3012 29.0425 20.913C29.1886 21.9795 30.0207 22.8116 31.0872 22.9577C31.699 23.0415 32.3634 23.1107 32.8895 23.1107C33.4156 23.1107 34.0801 23.0415 34.6918 22.9577C35.7584 22.8116 36.5905 21.9795 36.7366 20.913C36.8203 20.3012 36.8895 19.6368 36.8895 19.1107C36.8895 18.5846 36.8203 17.9202 36.7366 17.3084C36.5905 16.2418 35.7584 15.4097 34.6918 15.2637C34.0801 15.1799 33.4156 15.1107 32.8895 15.1107C32.3634 15.1107 31.699 15.1799 31.0872 15.2637Z" fill="url(#paint2_linear_123_207)" fill-opacity="0.2"/>
<path fill-rule="evenodd" clip-rule="evenodd" d="M32.8895 16.8885C32.4876 16.8885 31.9197 16.944 31.3285 17.025C31.0523 17.0628 30.8417 17.2734 30.8038 17.5496C30.7229 18.1408 30.6673 18.7087 30.6673 19.1107C30.6673 19.5126 30.7229 20.0805 30.8038 20.6717C30.8417 20.9479 31.0523 21.1586 31.3285 21.1964C31.9197 21.2774 32.4876 21.3329 32.8895 21.3329C33.2915 21.3329 33.8594 21.2774 34.4506 21.1964C34.7268 21.1586 34.9374 20.9479 34.9752 20.6717C35.0562 20.0805 35.1117 19.5126 35.1117 19.1107C35.1117 18.7087 35.0562 18.1408 34.9752 17.5496C34.9374 17.2734 34.7268 17.0628 34.4506 17.025C33.8594 16.944 33.2915 16.8885 32.8895 16.8885ZM31.0872 15.2637C30.0207 15.4097 29.1886 16.2418 29.0425 17.3084C28.9587 17.9202 28.8895 18.5846 28.8895 19.1107C28.8895 19.6368 28.9587 20.3012 29.0425 20.913C29.1886 21.9795 30.0207 22.8116 31.0872 22.9577C31.699 23.0415 32.3634 23.1107 32.8895 23.1107C33.4156 23.1107 34.0801 23.0415 34.6918 22.9577C35.7584 22.8116 36.5905 21.9795 36.7366 20.913C36.8203 20.3012 36.8895 19.6368 36.8895 19.1107C36.8895 18.5846 36.8203 17.9202 36.7366 17.3084C36.5905 16.2418 35.7584 15.4097 34.6918 15.2637C34.0801 15.1799 33.4156 15.1107 32.8895 15.1107C32.3634 15.1107 31.699 15.1799 31.0872 15.2637Z" fill="#FAFBFC"/>
<path fill-rule="evenodd" clip-rule="evenodd" d="M23.1116 16.8885C22.7096 16.8885 22.1417 16.9441 21.5505 17.025C21.2743 17.0629 21.0637 17.2735 21.0259 17.5497C20.9449 18.1409 20.8894 18.7088 20.8894 19.1107C20.8894 19.5127 20.9449 20.0806 21.0259 20.6718C21.0637 20.948 21.2743 21.1586 21.5505 21.1964C22.1417 21.2774 22.7096 21.3329 23.1116 21.3329C23.5135 21.3329 24.0814 21.2774 24.6726 21.1964C24.9488 21.1586 25.1594 20.948 25.1973 20.6718C25.2782 20.0806 25.3338 19.5127 25.3338 19.1107C25.3338 18.7088 25.2782 18.1409 25.1973 17.5497C25.1594 17.2735 24.9488 17.0629 24.6726 17.025C24.0814 16.9441 23.5135 16.8885 23.1116 16.8885ZM21.3093 15.2637C20.2427 15.4098 19.4106 16.2419 19.2645 17.3084C19.1808 17.9202 19.1116 18.5846 19.1116 19.1107C19.1116 19.6368 19.1808 20.3013 19.2645 20.913C19.4106 21.9796 20.2427 22.8117 21.3093 22.9577C21.921 23.0415 22.5855 23.1107 23.1116 23.1107C23.6377 23.1107 24.3021 23.0415 24.9139 22.9577C25.9804 22.8117 26.8125 21.9796 26.9586 20.913C27.0424 20.3013 27.1116 19.6368 27.1116 19.1107C27.1116 18.5846 27.0424 17.9202 26.9586 17.3084C26.8125 16.2419 25.9804 15.4098 24.9139 15.2637C24.3021 15.1799 23.6377 15.1107 23.1116 15.1107C22.5855 15.1107 21.921 15.1799 21.3093 15.2637Z" fill="url(#paint3_linear_123_207)" fill-opacity="0.2"/>
<path fill-rule="evenodd" clip-rule="evenodd" d="M23.1116 16.8885C22.7096 16.8885 22.1417 16.9441 21.5505 17.025C21.2743 17.0629 21.0637 17.2735 21.0259 17.5497C20.9449 18.1409 20.8894 18.7088 20.8894 19.1107C20.8894 19.5127 20.9449 20.0806 21.0259 20.6718C21.0637 20.948 21.2743 21.1586 21.5505 21.1964C22.1417 21.2774 22.7096 21.3329 23.1116 21.3329C23.5135 21.3329 24.0814 21.2774 24.6726 21.1964C24.9488 21.1586 25.1594 20.948 25.1973 20.6718C25.2782 20.0806 25.3338 19.5127 25.3338 19.1107C25.3338 18.7088 25.2782 18.1409 25.1973 17.5497C25.1594 17.2735 24.9488 17.0629 24.6726 17.025C24.0814 16.9441 23.5135 16.8885 23.1116 16.8885ZM21.3093 15.2637C20.2427 15.4098 19.4106 16.2419 19.2645 17.3084C19.1808 17.9202 19.1116 18.5846 19.1116 19.1107C19.1116 19.6368 19.1808 20.3013 19.2645 20.913C19.4106 21.9796 20.2427 22.8117 21.3093 22.9577C21.921 23.0415 22.5855 23.1107 23.1116 23.1107C23.6377 23.1107 24.3021 23.0415 24.9139 22.9577C25.9804 22.8117 26.8125 21.9796 26.9586 20.913C27.0424 20.3013 27.1116 19.6368 27.1116 19.1107C27.1116 18.5846 27.0424 17.9202 26.9586 17.3084C26.8125 16.2419 25.9804 15.4098 24.9139 15.2637C24.3021 15.1799 23.6377 15.1107 23.1116 15.1107C22.5855 15.1107 21.921 15.1799 21.3093 15.2637Z" fill="#FAFBFC"/>
<path fill-rule="evenodd" clip-rule="evenodd" d="M33.8064 26.6666C33.8064 26.3637 33.5609 26.1182 33.258 26.1182C32.9551 26.1182 32.7096 26.3637 32.7096 26.6666V28.7101H30.666C30.3631 28.7101 30.1176 28.9557 30.1176 29.2586C30.1176 29.5615 30.3631 29.807 30.666 29.807H32.7096V31.8518C32.7096 32.1547 32.9551 32.4003 33.258 32.4003C33.5609 32.4003 33.8064 32.1547 33.8064 31.8518V29.807H35.8512C36.1541 29.807 36.3996 29.5615 36.3996 29.2586C36.3996 28.9557 36.1541 28.7101 35.8512 28.7101H33.8064V26.6666Z" fill="url(#paint4_linear_123_207)" fill-opacity="0.2"/>
<path fill-rule="evenodd" clip-rule="evenodd" d="M33.8064 26.6666C33.8064 26.3637 33.5609 26.1182 33.258 26.1182C32.9551 26.1182 32.7096 26.3637 32.7096 26.6666V28.7101H30.666C30.3631 28.7101 30.1176 28.9557 30.1176 29.2586C30.1176 29.5615 30.3631 29.807 30.666 29.807H32.7096V31.8518C32.7096 32.1547 32.9551 32.4003 33.258 32.4003C33.5609 32.4003 33.8064 32.1547 33.8064 31.8518V29.807H35.8512C36.1541 29.807 36.3996 29.5615 36.3996 29.2586C36.3996 28.9557 36.1541 28.7101 35.8512 28.7101H33.8064V26.6666Z" fill="#FAFBFC"/>
<defs>
<filter id="filter0_d_123_207" x="0" y="0" width="56" height="56" filterUnits="userSpaceOnUse" color-interpolation-filters="sRGB">
<feFlood flood-opacity="0" result="BackgroundImageFix"/>
<feColorMatrix in="SourceAlpha" type="matrix" values="0 0 0 0 0 0 0 0 0 0 0 0 0 0 0 0 0 0 127 0" result="hardAlpha"/>
<feOffset dy="4"/>
<feGaussianBlur stdDeviation="2"/>
<feComposite in2="hardAlpha" operator="out"/>
<feColorMatrix type="matrix" values="0 0 0 0 0 0 0 0 0 0 0 0 0 0 0 0 0 0 0.25 0"/>
<feBlend mode="normal" in2="BackgroundImageFix" result="effect1_dropShadow_123_207"/>
<feBlend mode="normal" in="SourceGraphic" in2="effect1_dropShadow_123_207" result="shape"/>
</filter>
<linearGradient id="paint0_linear_123_207" x1="4" y1="24.6857" x2="52" y2="24.6857" gradientUnits="userSpaceOnUse">
<stop stop-color="#3E79E5"/>
<stop offset="1" stop-color="#01B8E3"/>
</linearGradient>
<linearGradient id="paint1_linear_123_207" x1="19.1116" y1="28.8884" x2="27.1116" y2="28.8884" gradientUnits="userSpaceOnUse">
<stop stop-color="#F0F0F0"/>
<stop offset="1" stop-color="#F0F0F0" stop-opacity="0"/>
</linearGradient>
<linearGradient id="paint2_linear_123_207" x1="28.8895" y1="19.1107" x2="36.8895" y2="19.1107" gradientUnits="userSpaceOnUse">
<stop stop-color="#F0F0F0"/>
<stop offset="1" stop-color="#F0F0F0" stop-opacity="0"/>
</linearGradient>
<linearGradient id="paint3_linear_123_207" x1="19.1116" y1="19.1107" x2="27.1116" y2="19.1107" gradientUnits="userSpaceOnUse">
<stop stop-color="#F0F0F0"/>
<stop offset="1" stop-color="#F0F0F0" stop-opacity="0"/>
</linearGradient>
<linearGradient id="paint4_linear_123_207" x1="30.1176" y1="29.2592" x2="36.3996" y2="29.2592" gradientUnits="userSpaceOnUse">
<stop stop-color="#F0F0F0"/>
<stop offset="1" stop-color="#F0F0F0" stop-opacity="0"/>
</linearGradient>
</defs>
</svg>
