<svg width="18" height="18" viewBox="0 0 18 18" fill="none" xmlns="http://www.w3.org/2000/svg">
<path d="M15.7501 13.5174C15.7501 13.8834 15.4534 14.1802 15.0873 14.1802H2.91291C2.54686 14.1802 2.25012 13.8834 2.25012 13.5174C2.25012 13.1513 2.54686 12.8546 2.91291 12.8546H2.92512V8.23561C2.92512 4.92961 5.64537 2.24994 9.00012 2.24994C12.3549 2.24994 15.0751 4.92961 15.0751 8.23561V12.8546H15.0873C15.4534 12.8546 15.7501 13.1513 15.7501 13.5174ZM4.27512 12.8546H13.7251V8.23561C13.7251 5.66199 11.6097 3.57552 9.00012 3.57552C6.39057 3.57552 4.27512 5.66199 4.27512 8.23561V12.8546ZM7.47394 15.55C7.29905 15.1859 7.64001 14.843 8.04387 14.843H9.95637C10.3602 14.843 10.7012 15.1859 10.5263 15.55C10.4442 15.7209 10.3321 15.8784 10.1934 16.0146C9.8769 16.3254 9.44767 16.4999 9.00012 16.4999C8.55257 16.4999 8.12335 16.3254 7.80688 16.0146C7.66815 15.8784 7.55608 15.7209 7.47394 15.55Z" fill="#A4B4CB"/>
<circle cx="13.1252" cy="4.87494" r="2.625" fill="#3D7AE5"/>
</svg>
