<svg width="252" height="68" viewBox="0 0 252 68" fill="none" xmlns="http://www.w3.org/2000/svg">
<g filter="url(#filter0_d_1_412)">
<rect x="68" width="48" height="48" rx="7.3125" fill="url(#paint0_linear_1_412)"/>
</g>
<path d="M90.6308 29.3332L91.1108 29.8576V26.6665C91.1108 26.4307 91.2045 26.2046 91.3712 26.0379C91.5379 25.8713 91.764 25.7776 91.9997 25.7776C92.2354 25.7776 92.4615 25.8713 92.6282 26.0379C92.7949 26.2046 92.8886 26.4307 92.8886 26.6665V29.8576L93.3686 29.3687C93.4493 29.2776 93.5478 29.204 93.6581 29.1525C93.7684 29.101 93.8881 29.0727 94.0098 29.0694C94.1314 29.0661 94.2525 29.0878 94.3654 29.1331C94.4784 29.1785 94.5808 29.2466 94.6664 29.3332C94.7497 29.4158 94.8158 29.5141 94.8609 29.6224C94.9061 29.7307 94.9293 29.8469 94.9293 29.9643C94.9293 30.0816 94.9061 30.1978 94.8609 30.3061C94.8158 30.4144 94.7497 30.5127 94.6664 30.5954L92.6308 32.6309C92.5463 32.7119 92.4466 32.7753 92.3375 32.8176C92.1211 32.9065 91.8783 32.9065 91.6619 32.8176C91.5528 32.7753 91.4531 32.7119 91.3686 32.6309L89.333 30.6309C89.1609 30.4588 89.0643 30.2254 89.0643 29.982C89.0643 29.7387 89.1609 29.5053 89.333 29.3332C89.5051 29.1611 89.7385 29.0644 89.9819 29.0644C90.2253 29.0644 90.4587 29.1611 90.6308 29.3332V29.3332ZM91.9997 23.9998C91.4723 23.9998 90.9567 23.8434 90.5182 23.5504C90.0796 23.2574 89.7379 22.8409 89.536 22.3536C89.3342 21.8664 89.2814 21.3302 89.3843 20.8129C89.4872 20.2956 89.7411 19.8205 90.1141 19.4475C90.487 19.0746 90.9622 18.8206 91.4795 18.7177C91.9967 18.6148 92.5329 18.6676 93.0202 18.8695C93.5075 19.0713 93.9239 19.4131 94.217 19.8516C94.51 20.2902 94.6664 20.8057 94.6664 21.3332C94.6664 22.0404 94.3854 22.7187 93.8853 23.2188C93.3852 23.7189 92.7069 23.9998 91.9997 23.9998ZM91.9997 20.4443C91.8239 20.4443 91.652 20.4964 91.5059 20.5941C91.3597 20.6917 91.2458 20.8306 91.1785 20.993C91.1112 21.1554 91.0936 21.3341 91.1279 21.5066C91.1622 21.679 91.2468 21.8374 91.3712 21.9617C91.4955 22.086 91.6539 22.1707 91.8263 22.205C91.9987 22.2393 92.1774 22.2217 92.3399 22.1544C92.5023 22.0871 92.6411 21.9732 92.7388 21.827C92.8365 21.6808 92.8886 21.509 92.8886 21.3332C92.8886 21.0974 92.7949 20.8713 92.6282 20.7046C92.4615 20.5379 92.2354 20.4443 91.9997 20.4443ZM85.7775 21.3332C85.7775 21.1574 85.8296 20.9855 85.9273 20.8393C86.025 20.6931 86.1638 20.5792 86.3262 20.5119C86.4886 20.4447 86.6674 20.427 86.8398 20.4613C87.0122 20.4956 87.1706 20.5803 87.2949 20.7046C87.4192 20.8289 87.5039 20.9873 87.5382 21.1597C87.5725 21.3322 87.5549 21.5109 87.4876 21.6733C87.4203 21.8357 87.3064 21.9746 87.1602 22.0722C87.014 22.1699 86.8422 22.222 86.6664 22.222C86.4306 22.222 86.2045 22.1284 86.0378 21.9617C85.8711 21.795 85.7775 21.5689 85.7775 21.3332ZM98.2219 21.3332C98.2219 21.509 98.1698 21.6808 98.0721 21.827C97.9744 21.9732 97.8356 22.0871 97.6732 22.1544C97.5108 22.2217 97.332 22.2393 97.1596 22.205C96.9872 22.1707 96.8288 22.086 96.7045 21.9617C96.5802 21.8374 96.4955 21.679 96.4612 21.5066C96.4269 21.3341 96.4445 21.1554 96.5118 20.993C96.5791 20.8306 96.693 20.6917 96.8392 20.5941C96.9854 20.4964 97.1572 20.4443 97.333 20.4443C97.5688 20.4443 97.7949 20.5379 97.9616 20.7046C98.1283 20.8713 98.2219 21.0974 98.2219 21.3332ZM99.1108 27.5554H95.5553C95.3195 27.5554 95.0934 27.4617 94.9267 27.295C94.76 27.1283 94.6664 26.9022 94.6664 26.6665C94.6664 26.4307 94.76 26.2046 94.9267 26.0379C95.0934 25.8713 95.3195 25.7776 95.5553 25.7776H99.1108C99.3466 25.7776 99.5727 25.6839 99.7394 25.5173C99.9061 25.3506 99.9997 25.1245 99.9997 24.8887V17.7776C99.9997 17.5419 99.9061 17.3158 99.7394 17.1491C99.5727 16.9824 99.3466 16.8887 99.1108 16.8887H84.8886C84.6528 16.8887 84.4268 16.9824 84.2601 17.1491C84.0934 17.3158 83.9997 17.5419 83.9997 17.7776V24.8887C83.9997 25.1245 84.0934 25.3506 84.2601 25.5173C84.4268 25.6839 84.6528 25.7776 84.8886 25.7776H88.4441C88.6799 25.7776 88.906 25.8713 89.0727 26.0379C89.2394 26.2046 89.333 26.4307 89.333 26.6665C89.333 26.9022 89.2394 27.1283 89.0727 27.295C88.906 27.4617 88.6799 27.5554 88.4441 27.5554H84.8886C84.1813 27.5554 83.5031 27.2744 83.003 26.7743C82.5029 26.2742 82.2219 25.596 82.2219 24.8887V17.7776C82.2219 17.0704 82.5029 16.3921 83.003 15.892C83.5031 15.3919 84.1813 15.1109 84.8886 15.1109H99.1108C99.8181 15.1109 100.496 15.3919 100.996 15.892C101.497 16.3921 101.777 17.0704 101.777 17.7776V24.8887C101.777 25.596 101.497 26.2742 100.996 26.7743C100.496 27.2744 99.8181 27.5554 99.1108 27.5554Z" fill="url(#paint1_linear_1_412)" fill-opacity="0.2"/>
<path d="M90.6308 29.3332L91.1108 29.8576V26.6665C91.1108 26.4307 91.2045 26.2046 91.3712 26.0379C91.5379 25.8713 91.764 25.7776 91.9997 25.7776C92.2354 25.7776 92.4615 25.8713 92.6282 26.0379C92.7949 26.2046 92.8886 26.4307 92.8886 26.6665V29.8576L93.3686 29.3687C93.4493 29.2776 93.5478 29.204 93.6581 29.1525C93.7684 29.101 93.8881 29.0727 94.0098 29.0694C94.1314 29.0661 94.2525 29.0878 94.3654 29.1331C94.4784 29.1785 94.5808 29.2466 94.6664 29.3332C94.7497 29.4158 94.8158 29.5141 94.8609 29.6224C94.9061 29.7307 94.9293 29.8469 94.9293 29.9643C94.9293 30.0816 94.9061 30.1978 94.8609 30.3061C94.8158 30.4144 94.7497 30.5127 94.6664 30.5954L92.6308 32.6309C92.5463 32.7119 92.4466 32.7753 92.3375 32.8176C92.1211 32.9065 91.8783 32.9065 91.6619 32.8176C91.5528 32.7753 91.4531 32.7119 91.3686 32.6309L89.333 30.6309C89.1609 30.4588 89.0643 30.2254 89.0643 29.982C89.0643 29.7387 89.1609 29.5053 89.333 29.3332C89.5051 29.1611 89.7385 29.0644 89.9819 29.0644C90.2253 29.0644 90.4587 29.1611 90.6308 29.3332V29.3332ZM91.9997 23.9998C91.4723 23.9998 90.9567 23.8434 90.5182 23.5504C90.0796 23.2574 89.7379 22.8409 89.536 22.3536C89.3342 21.8664 89.2814 21.3302 89.3843 20.8129C89.4872 20.2956 89.7411 19.8205 90.1141 19.4475C90.487 19.0746 90.9622 18.8206 91.4795 18.7177C91.9967 18.6148 92.5329 18.6676 93.0202 18.8695C93.5075 19.0713 93.9239 19.4131 94.217 19.8516C94.51 20.2902 94.6664 20.8057 94.6664 21.3332C94.6664 22.0404 94.3854 22.7187 93.8853 23.2188C93.3852 23.7189 92.7069 23.9998 91.9997 23.9998ZM91.9997 20.4443C91.8239 20.4443 91.652 20.4964 91.5059 20.5941C91.3597 20.6917 91.2458 20.8306 91.1785 20.993C91.1112 21.1554 91.0936 21.3341 91.1279 21.5066C91.1622 21.679 91.2468 21.8374 91.3712 21.9617C91.4955 22.086 91.6539 22.1707 91.8263 22.205C91.9987 22.2393 92.1774 22.2217 92.3399 22.1544C92.5023 22.0871 92.6411 21.9732 92.7388 21.827C92.8365 21.6808 92.8886 21.509 92.8886 21.3332C92.8886 21.0974 92.7949 20.8713 92.6282 20.7046C92.4615 20.5379 92.2354 20.4443 91.9997 20.4443ZM85.7775 21.3332C85.7775 21.1574 85.8296 20.9855 85.9273 20.8393C86.025 20.6931 86.1638 20.5792 86.3262 20.5119C86.4886 20.4447 86.6674 20.427 86.8398 20.4613C87.0122 20.4956 87.1706 20.5803 87.2949 20.7046C87.4192 20.8289 87.5039 20.9873 87.5382 21.1597C87.5725 21.3322 87.5549 21.5109 87.4876 21.6733C87.4203 21.8357 87.3064 21.9746 87.1602 22.0722C87.014 22.1699 86.8422 22.222 86.6664 22.222C86.4306 22.222 86.2045 22.1284 86.0378 21.9617C85.8711 21.795 85.7775 21.5689 85.7775 21.3332ZM98.2219 21.3332C98.2219 21.509 98.1698 21.6808 98.0721 21.827C97.9744 21.9732 97.8356 22.0871 97.6732 22.1544C97.5108 22.2217 97.332 22.2393 97.1596 22.205C96.9872 22.1707 96.8288 22.086 96.7045 21.9617C96.5802 21.8374 96.4955 21.679 96.4612 21.5066C96.4269 21.3341 96.4445 21.1554 96.5118 20.993C96.5791 20.8306 96.693 20.6917 96.8392 20.5941C96.9854 20.4964 97.1572 20.4443 97.333 20.4443C97.5688 20.4443 97.7949 20.5379 97.9616 20.7046C98.1283 20.8713 98.2219 21.0974 98.2219 21.3332ZM99.1108 27.5554H95.5553C95.3195 27.5554 95.0934 27.4617 94.9267 27.295C94.76 27.1283 94.6664 26.9022 94.6664 26.6665C94.6664 26.4307 94.76 26.2046 94.9267 26.0379C95.0934 25.8713 95.3195 25.7776 95.5553 25.7776H99.1108C99.3466 25.7776 99.5727 25.6839 99.7394 25.5173C99.9061 25.3506 99.9997 25.1245 99.9997 24.8887V17.7776C99.9997 17.5419 99.9061 17.3158 99.7394 17.1491C99.5727 16.9824 99.3466 16.8887 99.1108 16.8887H84.8886C84.6528 16.8887 84.4268 16.9824 84.2601 17.1491C84.0934 17.3158 83.9997 17.5419 83.9997 17.7776V24.8887C83.9997 25.1245 84.0934 25.3506 84.2601 25.5173C84.4268 25.6839 84.6528 25.7776 84.8886 25.7776H88.4441C88.6799 25.7776 88.906 25.8713 89.0727 26.0379C89.2394 26.2046 89.333 26.4307 89.333 26.6665C89.333 26.9022 89.2394 27.1283 89.0727 27.295C88.906 27.4617 88.6799 27.5554 88.4441 27.5554H84.8886C84.1813 27.5554 83.5031 27.2744 83.003 26.7743C82.5029 26.2742 82.2219 25.596 82.2219 24.8887V17.7776C82.2219 17.0704 82.5029 16.3921 83.003 15.892C83.5031 15.3919 84.1813 15.1109 84.8886 15.1109H99.1108C99.8181 15.1109 100.496 15.3919 100.996 15.892C101.497 16.3921 101.777 17.0704 101.777 17.7776V24.8887C101.777 25.596 101.497 26.2742 100.996 26.7743C100.496 27.2744 99.8181 27.5554 99.1108 27.5554Z" fill="#FAFBFC"/>
<defs>
<filter id="filter0_d_1_412" x="64" y="0" width="56" height="56" filterUnits="userSpaceOnUse" color-interpolation-filters="sRGB">
<feFlood flood-opacity="0" result="BackgroundImageFix"/>
<feColorMatrix in="SourceAlpha" type="matrix" values="0 0 0 0 0 0 0 0 0 0 0 0 0 0 0 0 0 0 127 0" result="hardAlpha"/>
<feOffset dy="4"/>
<feGaussianBlur stdDeviation="2"/>
<feComposite in2="hardAlpha" operator="out"/>
<feColorMatrix type="matrix" values="0 0 0 0 0 0 0 0 0 0 0 0 0 0 0 0 0 0 0.25 0"/>
<feBlend mode="normal" in2="BackgroundImageFix" result="effect1_dropShadow_1_412"/>
<feBlend mode="normal" in="SourceGraphic" in2="effect1_dropShadow_1_412" result="shape"/>
</filter>
<linearGradient id="paint0_linear_1_412" x1="68" y1="24.6857" x2="116" y2="24.6857" gradientUnits="userSpaceOnUse">
<stop stop-color="#3E79E5"/>
<stop offset="1" stop-color="#01B8E3"/>
</linearGradient>
<linearGradient id="paint1_linear_1_412" x1="82.2219" y1="23.9976" x2="101.777" y2="23.9976" gradientUnits="userSpaceOnUse">
<stop stop-color="#F0F0F0"/>
<stop offset="1" stop-color="#F0F0F0" stop-opacity="0"/>
</linearGradient>
</defs>
</svg>
