<svg width="252" height="68" viewBox="0 0 252 68" fill="none" xmlns="http://www.w3.org/2000/svg">
<rect width="48" height="48" rx="7.3125" fill="url(#paint0_linear_1_412)"/>
<g filter="url(#filter0_d_1_412)">
<path d="M22.6308 18.6621L23.1108 18.1376V21.3288C23.1108 21.5645 23.2045 21.7906 23.3712 21.9573C23.5379 22.124 23.764 22.2176 23.9997 22.2176C24.2354 22.2176 24.4615 22.124 24.6282 21.9573C24.7949 21.7906 24.8886 21.5645 24.8886 21.3288V18.1376L25.3686 18.6265C25.4493 18.7177 25.5478 18.7912 25.6581 18.8427C25.7684 18.8942 25.8881 18.9225 26.0098 18.9258C26.1314 18.9292 26.2525 18.9075 26.3654 18.8621C26.4784 18.8167 26.5808 18.7487 26.6664 18.6621C26.7497 18.5795 26.8158 18.4811 26.8609 18.3728C26.9061 18.2645 26.9293 18.1483 26.9293 18.031C26.9293 17.9136 26.9061 17.7974 26.8609 17.6891C26.8158 17.5808 26.7497 17.4825 26.6664 17.3999L24.6308 15.3643C24.5463 15.2834 24.4466 15.2199 24.3375 15.1776C24.1211 15.0887 23.8783 15.0887 23.6619 15.1776C23.5528 15.2199 23.4531 15.2834 23.3686 15.3643L21.333 17.3643C21.1609 17.5364 21.0643 17.7698 21.0643 18.0132C21.0643 18.2566 21.1609 18.49 21.333 18.6621C21.5051 18.8342 21.7385 18.9309 21.9819 18.9309C22.2253 18.9309 22.4587 18.8342 22.6308 18.6621V18.6621ZM23.9997 23.9954C23.4723 23.9954 22.9567 24.1518 22.5182 24.4448C22.0796 24.7378 21.7379 25.1543 21.536 25.6416C21.3342 26.1289 21.2814 26.665 21.3843 27.1823C21.4872 27.6996 21.7411 28.1748 22.1141 28.5477C22.487 28.9206 22.9622 29.1746 23.4795 29.2775C23.9967 29.3804 24.5329 29.3276 25.0202 29.1258C25.5075 28.9239 25.9239 28.5821 26.217 28.1436C26.51 27.7051 26.6664 27.1895 26.6664 26.6621C26.6664 25.9548 26.3854 25.2766 25.8853 24.7765C25.3852 24.2764 24.7069 23.9954 23.9997 23.9954ZM23.9997 27.551C23.8239 27.551 23.652 27.4988 23.5059 27.4012C23.3597 27.3035 23.2458 27.1647 23.1785 27.0022C23.1112 26.8398 23.0936 26.6611 23.1279 26.4887C23.1622 26.3162 23.2468 26.1579 23.3712 26.0335C23.4955 25.9092 23.6539 25.8246 23.8263 25.7903C23.9987 25.756 24.1774 25.7736 24.3399 25.8409C24.5023 25.9081 24.6411 26.0221 24.7388 26.1682C24.8365 26.3144 24.8886 26.4863 24.8886 26.6621C24.8886 26.8978 24.7949 27.1239 24.6282 27.2906C24.4615 27.4573 24.2354 27.551 23.9997 27.551ZM17.7775 26.6621C17.7775 26.8379 17.8296 27.0097 17.9273 27.1559C18.025 27.3021 18.1638 27.416 18.3262 27.4833C18.4886 27.5506 18.6674 27.5682 18.8398 27.5339C19.0122 27.4996 19.1706 27.4149 19.2949 27.2906C19.4192 27.1663 19.5039 27.0079 19.5382 26.8355C19.5725 26.6631 19.5549 26.4843 19.4876 26.3219C19.4203 26.1595 19.3064 26.0207 19.1602 25.923C19.014 25.8253 18.8422 25.7732 18.6664 25.7732C18.4306 25.7732 18.2045 25.8668 18.0378 26.0335C17.8711 26.2002 17.7775 26.4263 17.7775 26.6621ZM30.2219 26.6621C30.2219 26.4863 30.1698 26.3144 30.0721 26.1682C29.9744 26.0221 29.8356 25.9081 29.6732 25.8409C29.5108 25.7736 29.332 25.756 29.1596 25.7903C28.9872 25.8246 28.8288 25.9092 28.7045 26.0335C28.5802 26.1579 28.4955 26.3162 28.4612 26.4887C28.4269 26.6611 28.4445 26.8398 28.5118 27.0022C28.5791 27.1647 28.693 27.3035 28.8392 27.4012C28.9854 27.4988 29.1572 27.551 29.333 27.551C29.5688 27.551 29.7949 27.4573 29.9616 27.2906C30.1283 27.1239 30.2219 26.8978 30.2219 26.6621ZM31.1108 20.4399H27.5553C27.3195 20.4399 27.0934 20.5335 26.9267 20.7002C26.76 20.8669 26.6664 21.093 26.6664 21.3288C26.6664 21.5645 26.76 21.7906 26.9267 21.9573C27.0934 22.124 27.3195 22.2176 27.5553 22.2176H31.1108C31.3466 22.2176 31.5727 22.3113 31.7394 22.478C31.9061 22.6447 31.9997 22.8708 31.9997 23.1065V30.2176C31.9997 30.4534 31.9061 30.6795 31.7394 30.8462C31.5727 31.0129 31.3466 31.1065 31.1108 31.1065H16.8886C16.6528 31.1065 16.4268 31.0129 16.2601 30.8462C16.0934 30.6795 15.9997 30.4534 15.9997 30.2176V23.1065C15.9997 22.8708 16.0934 22.6447 16.2601 22.478C16.4268 22.3113 16.6528 22.2176 16.8886 22.2176H20.4441C20.6799 22.2176 20.906 22.124 21.0727 21.9573C21.2394 21.7906 21.333 21.5645 21.333 21.3288C21.333 21.093 21.2394 20.8669 21.0727 20.7002C20.906 20.5335 20.6799 20.4399 20.4441 20.4399H16.8886C16.1813 20.4399 15.5031 20.7208 15.003 21.2209C14.5029 21.721 14.2219 22.3993 14.2219 23.1065V30.2176C14.2219 30.9249 14.5029 31.6032 15.003 32.1033C15.5031 32.6034 16.1813 32.8843 16.8886 32.8843H31.1108C31.8181 32.8843 32.4963 32.6034 32.9964 32.1033C33.4965 31.6032 33.7775 30.9249 33.7775 30.2176V23.1065C33.7775 22.3993 33.4965 21.721 32.9964 21.2209C32.4963 20.7208 31.8181 20.4399 31.1108 20.4399Z" fill="url(#paint1_linear_1_412)" fill-opacity="0.2"/>
<path d="M22.6308 18.6621L23.1108 18.1376V21.3288C23.1108 21.5645 23.2045 21.7906 23.3712 21.9573C23.5379 22.124 23.764 22.2176 23.9997 22.2176C24.2354 22.2176 24.4615 22.124 24.6282 21.9573C24.7949 21.7906 24.8886 21.5645 24.8886 21.3288V18.1376L25.3686 18.6265C25.4493 18.7177 25.5478 18.7912 25.6581 18.8427C25.7684 18.8942 25.8881 18.9225 26.0098 18.9258C26.1314 18.9292 26.2525 18.9075 26.3654 18.8621C26.4784 18.8167 26.5808 18.7487 26.6664 18.6621C26.7497 18.5795 26.8158 18.4811 26.8609 18.3728C26.9061 18.2645 26.9293 18.1483 26.9293 18.031C26.9293 17.9136 26.9061 17.7974 26.8609 17.6891C26.8158 17.5808 26.7497 17.4825 26.6664 17.3999L24.6308 15.3643C24.5463 15.2834 24.4466 15.2199 24.3375 15.1776C24.1211 15.0887 23.8783 15.0887 23.6619 15.1776C23.5528 15.2199 23.4531 15.2834 23.3686 15.3643L21.333 17.3643C21.1609 17.5364 21.0643 17.7698 21.0643 18.0132C21.0643 18.2566 21.1609 18.49 21.333 18.6621C21.5051 18.8342 21.7385 18.9309 21.9819 18.9309C22.2253 18.9309 22.4587 18.8342 22.6308 18.6621V18.6621ZM23.9997 23.9954C23.4723 23.9954 22.9567 24.1518 22.5182 24.4448C22.0796 24.7378 21.7379 25.1543 21.536 25.6416C21.3342 26.1289 21.2814 26.665 21.3843 27.1823C21.4872 27.6996 21.7411 28.1748 22.1141 28.5477C22.487 28.9206 22.9622 29.1746 23.4795 29.2775C23.9967 29.3804 24.5329 29.3276 25.0202 29.1258C25.5075 28.9239 25.9239 28.5821 26.217 28.1436C26.51 27.7051 26.6664 27.1895 26.6664 26.6621C26.6664 25.9548 26.3854 25.2766 25.8853 24.7765C25.3852 24.2764 24.7069 23.9954 23.9997 23.9954ZM23.9997 27.551C23.8239 27.551 23.652 27.4988 23.5059 27.4012C23.3597 27.3035 23.2458 27.1647 23.1785 27.0022C23.1112 26.8398 23.0936 26.6611 23.1279 26.4887C23.1622 26.3162 23.2468 26.1579 23.3712 26.0335C23.4955 25.9092 23.6539 25.8246 23.8263 25.7903C23.9987 25.756 24.1774 25.7736 24.3399 25.8409C24.5023 25.9081 24.6411 26.0221 24.7388 26.1682C24.8365 26.3144 24.8886 26.4863 24.8886 26.6621C24.8886 26.8978 24.7949 27.1239 24.6282 27.2906C24.4615 27.4573 24.2354 27.551 23.9997 27.551ZM17.7775 26.6621C17.7775 26.8379 17.8296 27.0097 17.9273 27.1559C18.025 27.3021 18.1638 27.416 18.3262 27.4833C18.4886 27.5506 18.6674 27.5682 18.8398 27.5339C19.0122 27.4996 19.1706 27.4149 19.2949 27.2906C19.4192 27.1663 19.5039 27.0079 19.5382 26.8355C19.5725 26.6631 19.5549 26.4843 19.4876 26.3219C19.4203 26.1595 19.3064 26.0207 19.1602 25.923C19.014 25.8253 18.8422 25.7732 18.6664 25.7732C18.4306 25.7732 18.2045 25.8668 18.0378 26.0335C17.8711 26.2002 17.7775 26.4263 17.7775 26.6621ZM30.2219 26.6621C30.2219 26.4863 30.1698 26.3144 30.0721 26.1682C29.9744 26.0221 29.8356 25.9081 29.6732 25.8409C29.5108 25.7736 29.332 25.756 29.1596 25.7903C28.9872 25.8246 28.8288 25.9092 28.7045 26.0335C28.5802 26.1579 28.4955 26.3162 28.4612 26.4887C28.4269 26.6611 28.4445 26.8398 28.5118 27.0022C28.5791 27.1647 28.693 27.3035 28.8392 27.4012C28.9854 27.4988 29.1572 27.551 29.333 27.551C29.5688 27.551 29.7949 27.4573 29.9616 27.2906C30.1283 27.1239 30.2219 26.8978 30.2219 26.6621ZM31.1108 20.4399H27.5553C27.3195 20.4399 27.0934 20.5335 26.9267 20.7002C26.76 20.8669 26.6664 21.093 26.6664 21.3288C26.6664 21.5645 26.76 21.7906 26.9267 21.9573C27.0934 22.124 27.3195 22.2176 27.5553 22.2176H31.1108C31.3466 22.2176 31.5727 22.3113 31.7394 22.478C31.9061 22.6447 31.9997 22.8708 31.9997 23.1065V30.2176C31.9997 30.4534 31.9061 30.6795 31.7394 30.8462C31.5727 31.0129 31.3466 31.1065 31.1108 31.1065H16.8886C16.6528 31.1065 16.4268 31.0129 16.2601 30.8462C16.0934 30.6795 15.9997 30.4534 15.9997 30.2176V23.1065C15.9997 22.8708 16.0934 22.6447 16.2601 22.478C16.4268 22.3113 16.6528 22.2176 16.8886 22.2176H20.4441C20.6799 22.2176 20.906 22.124 21.0727 21.9573C21.2394 21.7906 21.333 21.5645 21.333 21.3288C21.333 21.093 21.2394 20.8669 21.0727 20.7002C20.906 20.5335 20.6799 20.4399 20.4441 20.4399H16.8886C16.1813 20.4399 15.5031 20.7208 15.003 21.2209C14.5029 21.721 14.2219 22.3993 14.2219 23.1065V30.2176C14.2219 30.9249 14.5029 31.6032 15.003 32.1033C15.5031 32.6034 16.1813 32.8843 16.8886 32.8843H31.1108C31.8181 32.8843 32.4963 32.6034 32.9964 32.1033C33.4965 31.6032 33.7775 30.9249 33.7775 30.2176V23.1065C33.7775 22.3993 33.4965 21.721 32.9964 21.2209C32.4963 20.7208 31.8181 20.4399 31.1108 20.4399Z" fill="#FAFBFC"/>
</g>
<defs>
<filter id="filter0_d_1_412" x="10.2219" y="15.111" width="27.5555" height="25.7733" filterUnits="userSpaceOnUse" color-interpolation-filters="sRGB">
<feFlood flood-opacity="0" result="BackgroundImageFix"/>
<feColorMatrix in="SourceAlpha" type="matrix" values="0 0 0 0 0 0 0 0 0 0 0 0 0 0 0 0 0 0 127 0" result="hardAlpha"/>
<feOffset dy="4"/>
<feGaussianBlur stdDeviation="2"/>
<feComposite in2="hardAlpha" operator="out"/>
<feColorMatrix type="matrix" values="0 0 0 0 0 0 0 0 0 0 0 0 0 0 0 0 0 0 0.25 0"/>
<feBlend mode="normal" in2="BackgroundImageFix" result="effect1_dropShadow_1_412"/>
<feBlend mode="normal" in="SourceGraphic" in2="effect1_dropShadow_1_412" result="shape"/>
</filter>
<linearGradient id="paint0_linear_1_412" x1="3.53687e-07" y1="24.6857" x2="48" y2="24.6857" gradientUnits="userSpaceOnUse">
<stop stop-color="#3E79E5"/>
<stop offset="1" stop-color="#01B8E3"/>
</linearGradient>
<linearGradient id="paint1_linear_1_412" x1="14.2219" y1="23.9976" x2="33.7775" y2="23.9976" gradientUnits="userSpaceOnUse">
<stop stop-color="#F0F0F0"/>
<stop offset="1" stop-color="#F0F0F0" stop-opacity="0"/>
</linearGradient>
</defs>
</svg>
