<svg width="16" height="16" viewBox="0 0 16 16" fill="none" xmlns="http://www.w3.org/2000/svg">
<g clip-path="url(#clip0_136_143)">
<path d="M15.456 6.04L13.944 5.536L14.656 4.112C14.7282 3.96295 14.7523 3.79517 14.7251 3.63182C14.6979 3.46847 14.6206 3.31759 14.504 3.2L12.8 1.496C12.6818 1.37767 12.5295 1.29937 12.3644 1.2721C12.1994 1.24484 12.03 1.26998 11.88 1.344L10.456 2.056L9.952 0.544003C9.89877 0.386396 9.79774 0.249303 9.66295 0.151801C9.52817 0.054299 9.36635 0.00123814 9.2 2.66683e-06H6.8C6.63229 -0.000430263 6.46868 0.0518578 6.3323 0.149476C6.19592 0.247095 6.09367 0.385106 6.04 0.544003L5.536 2.056L4.112 1.344C3.96295 1.27183 3.79517 1.24769 3.63182 1.27491C3.46847 1.30214 3.31759 1.37939 3.2 1.496L1.496 3.2C1.37767 3.31821 1.29937 3.47054 1.2721 3.63557C1.24484 3.80059 1.26998 3.97001 1.344 4.12L2.056 5.544L0.544003 6.048C0.386396 6.10123 0.249303 6.20226 0.151801 6.33705C0.054299 6.47183 0.00123814 6.63365 2.66683e-06 6.8V9.2C-0.000430263 9.36771 0.0518578 9.53132 0.149476 9.6677C0.247095 9.80408 0.385106 9.90633 0.544003 9.96L2.056 10.464L1.344 11.888C1.27183 12.0371 1.24769 12.2048 1.27491 12.3682C1.30214 12.5315 1.37939 12.6824 1.496 12.8L3.2 14.504C3.31821 14.6223 3.47054 14.7006 3.63557 14.7279C3.80059 14.7552 3.97001 14.73 4.12 14.656L5.544 13.944L6.048 15.456C6.10167 15.6149 6.20392 15.7529 6.3403 15.8505C6.47668 15.9481 6.64029 16.0004 6.808 16H9.208C9.37571 16.0004 9.53932 15.9481 9.6757 15.8505C9.81208 15.7529 9.91433 15.6149 9.968 15.456L10.472 13.944L11.896 14.656C12.0441 14.7264 12.2102 14.7495 12.3719 14.7223C12.5336 14.6951 12.6831 14.6189 12.8 14.504L14.504 12.8C14.6223 12.6818 14.7006 12.5295 14.7279 12.3644C14.7552 12.1994 14.73 12.03 14.656 11.88L13.944 10.456L15.456 9.952C15.6136 9.89877 15.7507 9.79774 15.8482 9.66295C15.9457 9.52817 15.9988 9.36635 16 9.2V6.8C16.0004 6.63229 15.9481 6.46868 15.8505 6.3323C15.7529 6.19592 15.6149 6.09367 15.456 6.04ZM14.4 8.624L13.44 8.944C13.2192 9.01561 13.0167 9.13438 12.8464 9.29208C12.6762 9.44978 12.5423 9.64263 12.454 9.85726C12.3657 10.0719 12.3251 10.3032 12.3352 10.535C12.3452 10.7669 12.4055 10.9938 12.512 11.2L12.968 12.112L12.088 12.992L11.2 12.512C10.9948 12.4098 10.7701 12.3528 10.541 12.345C10.312 12.3372 10.0839 12.3787 9.87225 12.4667C9.66061 12.5547 9.47034 12.6871 9.31433 12.8551C9.15833 13.023 9.04022 13.2225 8.968 13.44L8.648 14.4H7.376L7.056 13.44C6.98439 13.2192 6.86562 13.0167 6.70792 12.8464C6.55022 12.6762 6.35737 12.5423 6.14274 12.454C5.92811 12.3657 5.69684 12.3251 5.46498 12.3352C5.23312 12.3452 5.00621 12.4055 4.8 12.512L3.888 12.968L3.008 12.088L3.488 11.2C3.59448 10.9938 3.65482 10.7669 3.66484 10.535C3.67486 10.3032 3.63432 10.0719 3.54603 9.85726C3.45775 9.64263 3.32382 9.44978 3.15356 9.29208C2.98329 9.13438 2.78076 9.01561 2.56 8.944L1.6 8.624V7.376L2.56 7.056C2.78076 6.98439 2.98329 6.86562 3.15356 6.70792C3.32382 6.55022 3.45775 6.35737 3.54603 6.14274C3.63432 5.92811 3.67486 5.69684 3.66484 5.46498C3.65482 5.23312 3.59448 5.00621 3.488 4.8L3.032 3.912L3.912 3.032L4.8 3.488C5.00621 3.59448 5.23312 3.65482 5.46498 3.66484C5.69684 3.67486 5.92811 3.63432 6.14274 3.54603C6.35737 3.45775 6.55022 3.32382 6.70792 3.15356C6.86562 2.98329 6.98439 2.78076 7.056 2.56L7.376 1.6H8.624L8.944 2.56C9.01561 2.78076 9.13438 2.98329 9.29208 3.15356C9.44978 3.32382 9.64263 3.45775 9.85726 3.54603C10.0719 3.63432 10.3032 3.67486 10.535 3.66484C10.7669 3.65482 10.9938 3.59448 11.2 3.488L12.112 3.032L12.992 3.912L12.512 4.8C12.4098 5.00516 12.3528 5.22988 12.345 5.45895C12.3372 5.68803 12.3787 5.9161 12.4667 6.12775C12.5547 6.33939 12.6871 6.52966 12.8551 6.68566C13.023 6.84167 13.2225 6.95978 13.44 7.032L14.4 7.352V8.624ZM8 4.8C7.3671 4.8 6.74841 4.98768 6.22218 5.3393C5.69594 5.69092 5.28579 6.19069 5.04359 6.77541C4.80139 7.36014 4.73802 8.00355 4.86149 8.62429C4.98496 9.24503 5.28973 9.81521 5.73726 10.2627C6.18479 10.7103 6.75497 11.015 7.37571 11.1385C7.99645 11.262 8.63986 11.1986 9.22459 10.9564C9.80931 10.7142 10.3091 10.3041 10.6607 9.77782C11.0123 9.25159 11.2 8.6329 11.2 8C11.2 7.15131 10.8629 6.33738 10.2627 5.73726C9.66263 5.13714 8.84869 4.8 8 4.8ZM8 9.6C7.68355 9.6 7.37421 9.50616 7.11109 9.33035C6.84797 9.15454 6.64289 8.90465 6.52179 8.61229C6.40069 8.31993 6.36901 7.99823 6.43074 7.68786C6.49248 7.37749 6.64487 7.09239 6.86863 6.86863C7.09239 6.64487 7.37749 6.49248 7.68786 6.43074C7.99823 6.36901 8.31993 6.40069 8.61229 6.52179C8.90465 6.64289 9.15454 6.84797 9.33035 7.11109C9.50616 7.37421 9.6 7.68355 9.6 8C9.6 8.42435 9.43143 8.83131 9.13137 9.13137C8.83131 9.43143 8.42435 9.6 8 9.6Z" fill="#D3E1F5"/>
</g>
<defs>
<clipPath id="clip0_136_143">
<rect width="16" height="16" fill="white"/>
</clipPath>
</defs>
</svg>
