<svg width="16" height="16" viewBox="0 0 16 16" fill="none" xmlns="http://www.w3.org/2000/svg">
<path d="M4 10H6.4C6.61217 10 6.81566 9.91571 6.96569 9.76569C7.11571 9.61566 7.2 9.41217 7.2 9.2C7.2 8.98783 7.11571 8.78434 6.96569 8.63432C6.81566 8.48429 6.61217 8.4 6.4 8.4H4C3.78783 8.4 3.58434 8.48429 3.43431 8.63432C3.28429 8.78434 3.2 8.98783 3.2 9.2C3.2 9.41217 3.28429 9.61566 3.43431 9.76569C3.58434 9.91571 3.78783 10 4 10ZM13.6 2H2.4C1.76348 2 1.15303 2.25286 0.702944 2.70294C0.252856 3.15303 0 3.76348 0 4.4V11.6C0 12.2365 0.252856 12.847 0.702944 13.2971C1.15303 13.7471 1.76348 14 2.4 14H13.6C14.2365 14 14.847 13.7471 15.2971 13.2971C15.7471 12.847 16 12.2365 16 11.6V4.4C16 3.76348 15.7471 3.15303 15.2971 2.70294C14.847 2.25286 14.2365 2 13.6 2ZM14.4 11.6C14.4 11.8122 14.3157 12.0157 14.1657 12.1657C14.0157 12.3157 13.8122 12.4 13.6 12.4H2.4C2.18783 12.4 1.98434 12.3157 1.83431 12.1657C1.68429 12.0157 1.6 11.8122 1.6 11.6V6.8H14.4V11.6ZM14.4 5.2H1.6V4.4C1.6 4.18783 1.68429 3.98434 1.83431 3.83431C1.98434 3.68429 2.18783 3.6 2.4 3.6H13.6C13.8122 3.6 14.0157 3.68429 14.1657 3.83431C14.3157 3.98434 14.4 4.18783 14.4 4.4V5.2Z" fill="#D3E1F5"/>
</svg>
